<?xml version="1.0" encoding="utf-8"?>
<!-- Generator: Adobe Illustrator 12.0.1, SVG Export Plug-In . SVG Version: 6.00 Build 51448)  -->
<!DOCTYPE svg PUBLIC "-//W3C//DTD SVG 1.1//EN" "http://www.w3.org/Graphics/SVG/1.1/DTD/svg11.dtd" [
	<!ENTITY ns_svg "http://www.w3.org/2000/svg">
	<!ENTITY ns_xlink "http://www.w3.org/1999/xlink">
	<!ENTITY st0 "fill:#FFFFFF;stroke:#000000;stroke-width:3;">
	<!ENTITY st1 "fill:none;">
	<!ENTITY st2 "fill:none;stroke:#000000;stroke-width:3;">
]>
<svg  version="1.1" id="Layer_1" xmlns="&ns_svg;" xmlns:xlink="&ns_xlink;" width="975.1" height="317.5"
	 viewBox="0 0 975.1 317.5" style="overflow:visible;enable-background:new 0 0 975.1 317.5;" xml:space="preserve">
<rect x="283.5" y="22.7" style="&st0;" width="170.1" height="79.4"/>
<g>
	<path d="M318.5,56.3c1.1-0.1,1.8-0.3,2.1-0.6c0.3-0.3,0.4-1,0.4-2.2V46c0-0.7,0-1.1-0.1-1.4c-0.2-0.4-0.5-0.6-1-0.6
		c-0.1,0-0.2,0-0.3,0c-0.1,0-0.4,0.1-0.9,0.2v-0.5l0.7-0.2c1.8-0.6,3.1-1,3.8-1.3c0.3-0.1,0.5-0.2,0.6-0.2c0,0.1,0,0.2,0,0.2v11.2
		c0,1.2,0.1,1.9,0.4,2.2c0.3,0.3,0.9,0.5,1.9,0.6v0.4h-7.6V56.3z M321,35.4c0.3-0.3,0.7-0.5,1.2-0.5c0.4,0,0.8,0.2,1.1,0.5
		c0.3,0.3,0.5,0.7,0.5,1.2c0,0.4-0.2,0.8-0.5,1.1c-0.3,0.3-0.7,0.5-1.1,0.5c-0.5,0-0.8-0.2-1.2-0.5s-0.5-0.7-0.5-1.1
		C320.5,36.1,320.7,35.7,321,35.4z"/>
	<path d="M327.3,56.3c0.8-0.1,1.4-0.2,1.6-0.4c0.4-0.3,0.6-0.9,0.6-1.8V46c0-0.8-0.1-1.3-0.3-1.5s-0.5-0.4-1-0.4c-0.2,0-0.4,0-0.5,0
		c-0.1,0-0.2,0.1-0.4,0.1v-0.6l1.1-0.4c0.4-0.1,1.1-0.4,2-0.7s1.4-0.5,1.5-0.5c0.1,0,0.1,0,0.1,0.1s0,0.2,0,0.3v2.1
		c1-0.9,1.9-1.6,2.7-2s1.5-0.5,2.3-0.5c1.1,0,1.9,0.4,2.5,1.1c0.3,0.4,0.6,0.9,0.8,1.6c0.8-0.8,1.4-1.4,2-1.7c1-0.6,2-1,3-1
		c1.7,0,2.8,0.7,3.3,2c0.3,0.8,0.5,2,0.5,3.7v6.5c0,0.7,0.2,1.2,0.5,1.5c0.3,0.3,0.9,0.4,1.8,0.5v0.4h-7.1v-0.4
		c0.9-0.1,1.5-0.3,1.8-0.6c0.3-0.3,0.4-0.9,0.4-1.7v-6.7c0-1-0.1-1.8-0.3-2.2c-0.4-0.9-1.1-1.3-2.3-1.3c-0.7,0-1.3,0.2-2,0.7
		c-0.4,0.3-0.9,0.7-1.4,1.3v8c0,0.8,0.1,1.5,0.4,1.9c0.3,0.4,0.9,0.7,1.9,0.7v0.4h-7.2v-0.4c1-0.1,1.6-0.4,1.9-0.7
		c0.3-0.3,0.4-1.2,0.4-2.6v-4.4c0-1.6-0.1-2.7-0.3-3.3c-0.3-1-1.1-1.5-2.2-1.5c-0.6,0-1.2,0.2-1.9,0.5s-1.1,0.8-1.6,1.4v8.5
		c0,0.8,0.1,1.3,0.4,1.6c0.3,0.3,0.9,0.5,1.8,0.5v0.4h-7.2V56.3z"/>
	<path d="M351.8,63.1c1-0.1,1.6-0.3,1.9-0.6c0.3-0.4,0.4-0.9,0.4-1.7v-15c0-0.8-0.1-1.3-0.3-1.5c-0.2-0.2-0.6-0.3-1.1-0.3
		c-0.1,0-0.2,0-0.3,0c-0.1,0-0.2,0-0.4,0.1v-0.5l1.5-0.5c0.1,0,1.1-0.4,3.1-1.1c0.1,0,0.1,0,0.1,0.1c0,0,0,0.1,0,0.2v2.1
		c0.7-0.7,1.3-1.2,1.8-1.5c0.9-0.6,1.9-0.9,2.9-0.9c1.4,0,2.7,0.6,3.7,1.8c1,1.2,1.6,2.9,1.6,5c0,2.1-0.6,4-1.9,5.7
		c-1.2,1.7-2.8,2.5-4.7,2.5c-0.6,0-1.1-0.1-1.5-0.2c-0.7-0.2-1.3-0.6-1.8-1.2v5.2c0,1,0.2,1.7,0.5,1.9c0.3,0.2,1.1,0.4,2.3,0.5v0.6
		h-7.7V63.1z M357.9,55.4c0.5,0.3,1.2,0.5,1.9,0.5c1.1,0,2.1-0.6,2.9-1.7s1.2-2.7,1.2-4.7c0-1.9-0.4-3.3-1.2-4.3s-1.8-1.4-2.9-1.4
		c-0.8,0-1.5,0.2-2.1,0.7c-0.6,0.5-1,0.9-1,1.4v7.8C357,54.5,357.4,55,357.9,55.4z"/>
	<path d="M372.6,42.2v10c0,0.7,0.1,1.3,0.3,1.7c0.4,0.8,1.1,1.2,2.1,1.2c0.7,0,1.4-0.2,2.1-0.7c0.4-0.3,0.8-0.6,1.2-1.1v-8.5
		c0-0.8-0.2-1.3-0.5-1.6s-0.9-0.4-1.9-0.5v-0.5h5v11c0,0.7,0.1,1.2,0.4,1.5c0.3,0.3,0.8,0.4,1.6,0.4v0.4c-0.6,0.2-1,0.3-1.3,0.4
		c-0.3,0.1-0.7,0.2-1.4,0.4c-0.3,0.1-0.9,0.3-1.8,0.7c-0.1,0-0.1,0-0.1-0.1c0,0,0-0.1,0-0.2v-2.5c-0.7,0.8-1.4,1.5-1.9,1.9
		c-0.9,0.6-1.8,0.9-2.8,0.9c-0.9,0-1.8-0.3-2.6-1c-0.8-0.6-1.2-1.7-1.2-3.2v-8.1c0-0.8-0.2-1.4-0.5-1.7c-0.2-0.2-0.7-0.3-1.5-0.4
		v-0.4H372.6z"/>
	<path d="M384.3,56.3c1-0.1,1.6-0.3,2-0.6s0.5-0.9,0.5-1.8V38.7c0-0.7-0.1-1.2-0.2-1.4c-0.2-0.4-0.6-0.7-1.3-0.7c-0.1,0-0.3,0-0.5,0
		s-0.4,0.1-0.6,0.1v-0.5c1.4-0.4,3.1-0.9,5.1-1.5c0.1,0,0.1,0,0.1,0.1s0,0.2,0,0.4V54c0,0.9,0.2,1.5,0.5,1.8s1,0.4,1.9,0.5v0.4h-7.6
		V56.3z"/>
	<path d="M394.2,51.7h0.5c0.2,1.2,0.6,2.1,1,2.7c0.7,1.2,1.8,1.8,3.2,1.8c0.8,0,1.4-0.2,1.8-0.6c0.5-0.4,0.7-1,0.7-1.7
		c0-0.4-0.1-0.9-0.4-1.3c-0.3-0.4-0.7-0.8-1.4-1.2l-1.7-1c-1.3-0.7-2.2-1.4-2.8-2.1c-0.6-0.7-0.9-1.5-0.9-2.5c0-1.2,0.4-2.1,1.3-2.9
		s1.9-1.1,3.1-1.1c0.6,0,1.2,0.1,1.8,0.3c0.7,0.2,1,0.3,1.1,0.3c0.2,0,0.3,0,0.4-0.1s0.2-0.1,0.2-0.2h0.4l0.1,4.4h-0.5
		c-0.2-1-0.5-1.8-0.8-2.4c-0.6-1-1.6-1.6-2.8-1.6c-0.7,0-1.3,0.2-1.7,0.7c-0.4,0.4-0.6,1-0.6,1.6c0,1,0.7,1.8,2.2,2.6l2.1,1.1
		c2.2,1.2,3.3,2.6,3.3,4.2c0,1.2-0.5,2.2-1.4,3s-2.1,1.2-3.6,1.2c-0.6,0-1.3-0.1-2.1-0.3s-1.3-0.3-1.4-0.3c-0.1,0-0.2,0-0.3,0.1
		s-0.2,0.2-0.2,0.3h-0.4V51.7z"/>
	<path d="M416.1,43.6c1.1,1,1.7,2.5,1.7,4.3h-9.9c0.1,2.4,0.6,4.2,1.6,5.3s2.2,1.6,3.5,1.6c1.1,0,2-0.3,2.8-0.9
		c0.7-0.6,1.4-1.4,2.1-2.4l0.5,0.2c-0.4,1.3-1.2,2.6-2.4,3.7c-1.2,1.1-2.6,1.7-4.3,1.7c-2,0-3.5-0.7-4.5-2.2
		c-1.1-1.5-1.6-3.2-1.6-5.1c0-2.1,0.6-3.9,1.9-5.4c1.2-1.5,2.9-2.3,4.8-2.3C413.8,42,415,42.5,416.1,43.6z M408.7,44.8
		c-0.3,0.6-0.6,1.3-0.7,2.1h6.5c-0.1-1-0.3-1.8-0.6-2.3c-0.5-0.9-1.4-1.4-2.5-1.4C410.2,43.2,409.3,43.7,408.7,44.8z"/>
	<path d="M311.1,81.8c-0.5-0.8-0.8-1.7-0.8-2.7c0-1.2,0.5-2.4,1.5-3.5s2.3-1.6,4.1-1.6c0.8,0,1.6,0.2,2.5,0.5
		c0.9,0.4,1.8,0.5,2.6,0.5c0.2,0,0.6,0,1,0s0.8,0,1,0h0.2v1.3h-2.7c0.2,0.4,0.3,0.8,0.4,1.1c0.2,0.6,0.3,1.2,0.3,1.7
		c0,1.2-0.5,2.3-1.5,3.3c-1,1-2.3,1.5-4,1.5c-0.3,0-0.7,0-1.4-0.1c-0.3,0-0.7,0.3-1.2,0.8s-0.7,0.9-0.7,1.3c0,0.3,0.4,0.6,1.1,0.7
		c0.5,0.1,1,0.2,1.6,0.2c2.7,0,4.5,0.2,5.4,0.5c1.6,0.5,2.4,1.5,2.4,3.2c0,1.6-0.9,3-2.8,3.9c-1.8,1-3.7,1.5-5.6,1.5
		c-1.7,0-3.1-0.3-4.1-1s-1.5-1.4-1.5-2.2c0-0.4,0.1-0.7,0.4-1.1c0.3-0.4,0.8-0.9,1.6-1.6l1-0.9l0.2-0.2c-0.5-0.2-0.8-0.4-1.1-0.5
		c-0.4-0.3-0.6-0.7-0.6-1.1c0-0.4,0.2-0.8,0.5-1.3c0.4-0.5,1.1-1.2,2.3-2.3C312.3,83.1,311.6,82.6,311.1,81.8z M312.7,93.4
		c1,0.3,2.1,0.5,3.4,0.5c1.7,0,3.1-0.3,4.2-0.9c1.1-0.6,1.6-1.3,1.6-2.2c0-0.7-0.4-1.2-1.3-1.4c-0.5-0.1-1.6-0.2-3.1-0.2
		c-0.4,0-0.8,0-1.2,0s-0.8,0-1.2-0.1c-0.2,0-0.6-0.1-1.1-0.1c-0.5-0.1-0.9-0.1-1.1-0.2c-0.1,0-0.4,0.3-0.9,1
		c-0.5,0.7-0.8,1.3-0.8,1.8C311.3,92.5,311.7,93.1,312.7,93.4z M317.7,82.7c0.6-0.5,0.9-1.4,0.9-2.6c0-1-0.3-2.1-0.8-3.3
		c-0.5-1.2-1.3-1.9-2.5-1.9c-1,0-1.7,0.5-2.1,1.5c-0.2,0.5-0.3,1.1-0.3,1.9c0,1.3,0.3,2.4,0.9,3.4s1.4,1.5,2.4,1.5
		C316.8,83.1,317.3,83,317.7,82.7z"/>
	<path d="M335.3,75.6c1.1,1,1.7,2.5,1.7,4.3h-9.9c0.1,2.4,0.6,4.2,1.6,5.3s2.2,1.6,3.5,1.6c1.1,0,2-0.3,2.8-0.9
		c0.7-0.6,1.4-1.4,2.1-2.4l0.5,0.2c-0.4,1.3-1.2,2.6-2.4,3.7s-2.6,1.7-4.3,1.7c-2,0-3.5-0.7-4.5-2.2c-1.1-1.5-1.6-3.2-1.6-5.1
		c0-2.1,0.6-3.9,1.9-5.4c1.2-1.5,2.9-2.3,4.8-2.3C332.9,74,334.2,74.5,335.3,75.6z M327.8,76.8c-0.3,0.6-0.6,1.3-0.7,2.1h6.5
		c-0.1-1-0.3-1.8-0.6-2.3c-0.5-0.9-1.4-1.4-2.5-1.4C329.4,75.2,328.5,75.7,327.8,76.8z"/>
	<path d="M338.9,88.3c0.7-0.1,1.3-0.3,1.6-0.5c0.3-0.3,0.4-0.9,0.4-1.8v-8c0-0.7-0.1-1.1-0.2-1.4c-0.2-0.4-0.6-0.6-1.2-0.6
		c-0.1,0-0.2,0-0.3,0c-0.1,0-0.2,0-0.4,0v-0.6c0.4-0.1,1.4-0.5,3-1l1.5-0.5c0.1,0,0.1,0,0.1,0.1c0,0.1,0,0.1,0,0.2v2.3
		c1-0.9,1.7-1.5,2.2-1.9c0.8-0.5,1.6-0.8,2.5-0.8c0.7,0,1.3,0.2,1.9,0.6c1.1,0.8,1.7,2.2,1.7,4.2v7.3c0,0.8,0.2,1.3,0.5,1.6
		c0.3,0.3,0.8,0.5,1.5,0.5v0.4h-6.7v-0.4c0.8-0.1,1.3-0.3,1.6-0.6c0.3-0.3,0.5-1,0.5-2.1v-6.7c0-0.9-0.2-1.6-0.5-2.2
		c-0.3-0.6-0.9-0.9-1.8-0.9c-0.6,0-1.2,0.2-1.9,0.6c-0.4,0.2-0.8,0.6-1.4,1.2v8.8c0,0.8,0.2,1.3,0.5,1.5c0.3,0.3,0.9,0.4,1.6,0.4
		v0.4h-6.8V88.3z"/>
	<path d="M365.5,75.6c1.1,1,1.7,2.5,1.7,4.3h-9.9c0.1,2.4,0.6,4.2,1.6,5.3s2.2,1.6,3.5,1.6c1.1,0,2-0.3,2.8-0.9
		c0.7-0.6,1.4-1.4,2.1-2.4l0.5,0.2c-0.4,1.3-1.2,2.6-2.4,3.7s-2.6,1.7-4.3,1.7c-2,0-3.5-0.7-4.5-2.2c-1.1-1.5-1.6-3.2-1.6-5.1
		c0-2.1,0.6-3.9,1.9-5.4c1.2-1.5,2.9-2.3,4.8-2.3C363.1,74,364.4,74.5,365.5,75.6z M358,76.8c-0.3,0.6-0.6,1.3-0.7,2.1h6.5
		c-0.1-1-0.3-1.8-0.6-2.3c-0.5-0.9-1.4-1.4-2.5-1.4C359.6,75.2,358.7,75.7,358,76.8z"/>
	<path d="M368.7,88.2c1-0.1,1.6-0.2,1.9-0.5s0.5-0.8,0.5-1.6v-7.1c0-1-0.1-1.8-0.3-2.2c-0.2-0.4-0.5-0.7-1.1-0.7c-0.1,0-0.2,0-0.4,0
		c-0.2,0-0.4,0.1-0.5,0.1v-0.5c0.6-0.2,1.2-0.4,1.8-0.6s1.1-0.4,1.3-0.5c0.5-0.2,1.1-0.4,1.6-0.7c0.1,0,0.1,0,0.1,0.1s0,0.2,0,0.4
		v2.6c0.7-0.9,1.3-1.7,1.9-2.2c0.6-0.5,1.3-0.8,1.9-0.8c0.5,0,1,0.2,1.3,0.5c0.3,0.3,0.5,0.7,0.5,1.2c0,0.4-0.1,0.8-0.4,1.1
		c-0.3,0.3-0.6,0.4-1,0.4c-0.4,0-0.8-0.2-1.2-0.5c-0.4-0.4-0.7-0.5-0.9-0.5c-0.4,0-0.8,0.3-1.3,0.9c-0.5,0.6-0.8,1.2-0.8,1.8v7
		c0,0.9,0.2,1.5,0.6,1.9c0.4,0.3,1.1,0.5,2.1,0.5v0.5h-7.7V88.2z"/>
	<path d="M382.6,81.8c1-0.6,2.9-1.5,5.7-2.6v-1.3c0-1.1-0.1-1.8-0.3-2.2c-0.4-0.7-1.1-1-2.2-1c-0.5,0-1,0.1-1.5,0.4
		c-0.5,0.3-0.7,0.7-0.7,1.2c0,0.1,0,0.3,0.1,0.6c0.1,0.3,0.1,0.5,0.1,0.6c0,0.6-0.2,1-0.6,1.2c-0.2,0.1-0.5,0.2-0.8,0.2
		c-0.5,0-0.8-0.2-1.1-0.5s-0.4-0.6-0.4-1c0-0.7,0.5-1.5,1.4-2.3c0.9-0.8,2.2-1.2,4-1.2c2,0,3.4,0.7,4.1,2c0.4,0.7,0.6,1.8,0.6,3.1
		v6.3c0,0.6,0,1,0.1,1.2c0.1,0.4,0.4,0.6,0.8,0.6c0.2,0,0.4,0,0.6-0.1c0.2-0.1,0.4-0.3,0.8-0.5v0.8c-0.3,0.4-0.7,0.7-1.1,1
		c-0.6,0.4-1.2,0.6-1.8,0.6c-0.7,0-1.2-0.2-1.5-0.7s-0.5-1-0.5-1.6c-0.8,0.7-1.5,1.2-2,1.5c-1,0.6-1.9,0.8-2.7,0.8
		c-0.9,0-1.7-0.3-2.3-0.9c-0.7-0.6-1-1.4-1-2.4C380.3,84.1,381.1,82.8,382.6,81.8z M388.3,80c-1.2,0.4-2.2,0.8-3,1.3
		c-1.5,0.9-2.2,2-2.2,3.2c0,0.9,0.3,1.6,0.9,2.1c0.4,0.3,0.9,0.4,1.4,0.4c0.7,0,1.3-0.2,2-0.6c0.6-0.4,0.9-0.9,0.9-1.5V80z"/>
	<path d="M401.5,74.3v1.1h-3.2l0,8.9c0,0.8,0.1,1.4,0.2,1.8c0.3,0.7,0.7,1.1,1.5,1.1c0.4,0,0.7-0.1,1-0.3c0.3-0.2,0.6-0.5,1-0.8
		l0.4,0.3l-0.3,0.5c-0.5,0.7-1.1,1.3-1.7,1.6S399,89,398.5,89c-1.2,0-2.1-0.5-2.5-1.6c-0.2-0.6-0.4-1.4-0.4-2.5v-9.4h-1.7
		c-0.1,0-0.1-0.1-0.1-0.1s0-0.1,0-0.1c0-0.1,0-0.2,0.1-0.2c0-0.1,0.2-0.2,0.4-0.4c0.7-0.6,1.2-1.1,1.6-1.5c0.3-0.4,1.1-1.4,2.2-2.9
		c0.1,0,0.2,0,0.2,0c0,0,0,0.1,0,0.2v3.9H401.5z"/>
	<path d="M405,76.2c1.3-1.4,3-2.2,5.1-2.2c2.1,0,3.8,0.7,5.1,2c1.4,1.4,2,3.2,2,5.4c0,2.1-0.7,3.9-2,5.4s-3,2.3-5.1,2.3
		c-2,0-3.7-0.7-5.1-2.2c-1.4-1.5-2.1-3.3-2.1-5.5C403.1,79.4,403.7,77.6,405,76.2z M407.5,75.8c-1,0.9-1.6,2.6-1.6,4.9
		c0,1.9,0.4,3.6,1.3,5.2c0.8,1.6,2,2.4,3.5,2.4c1.2,0,2.1-0.5,2.7-1.6s0.9-2.5,0.9-4.2c0-1.8-0.4-3.5-1.2-5.1
		c-0.8-1.6-2-2.4-3.5-2.4C408.9,75,408.1,75.2,407.5,75.8z"/>
	<path d="M418.4,88.2c1-0.1,1.6-0.2,1.9-0.5s0.5-0.8,0.5-1.6v-7.1c0-1-0.1-1.8-0.3-2.2c-0.2-0.4-0.5-0.7-1.1-0.7c-0.1,0-0.2,0-0.4,0
		c-0.2,0-0.4,0.1-0.5,0.1v-0.5c0.6-0.2,1.2-0.4,1.8-0.6s1.1-0.4,1.3-0.5c0.5-0.2,1.1-0.4,1.6-0.7c0.1,0,0.1,0,0.1,0.1s0,0.2,0,0.4
		v2.6c0.7-0.9,1.3-1.7,1.9-2.2c0.6-0.5,1.3-0.8,1.9-0.8c0.5,0,1,0.2,1.3,0.5c0.3,0.3,0.5,0.7,0.5,1.2c0,0.4-0.1,0.8-0.4,1.1
		c-0.3,0.3-0.6,0.4-1,0.4c-0.4,0-0.8-0.2-1.2-0.5c-0.4-0.4-0.7-0.5-0.9-0.5c-0.4,0-0.8,0.3-1.3,0.9c-0.5,0.6-0.8,1.2-0.8,1.8v7
		c0,0.9,0.2,1.5,0.6,1.9c0.4,0.3,1.1,0.5,2.1,0.5v0.5h-7.7V88.2z"/>
</g>
<g>
	<path d="M715.7,133.7c0.9,0.7,1.4,1.4,1.4,2.2c0,0.3-0.1,0.7-0.4,1c-0.2,0.3-0.6,0.4-1.1,0.4c-0.4,0-0.7-0.1-1-0.4
		s-0.5-0.6-0.6-1.1l-0.2-0.8c-0.1-0.6-0.4-0.9-0.7-1.2c-0.3-0.2-0.8-0.3-1.4-0.3c-1.2,0-2.2,0.5-3,1.6s-1.2,2.4-1.2,4.1
		c0,1.6,0.4,3,1.3,4.2c0.9,1.2,2.1,1.9,3.6,1.9c1.1,0,2-0.4,2.9-1.1c0.5-0.4,1-1,1.6-1.9l0.4,0.3c-0.6,1.3-1.2,2.2-1.9,3
		c-1.3,1.4-2.7,2.1-4.4,2.1c-1.6,0-3.1-0.6-4.3-1.9s-1.9-3-1.9-5.2c0-2.2,0.7-4,2-5.6c1.4-1.6,3.1-2.3,5.2-2.3
		C713.6,132.7,714.8,133,715.7,133.7z"/>
	<path d="M721.4,134.9c1.3-1.4,3-2.2,5.1-2.2c2.1,0,3.8,0.7,5.1,2c1.4,1.4,2,3.2,2,5.4c0,2.1-0.7,3.9-2,5.4s-3,2.3-5.1,2.3
		c-2,0-3.7-0.7-5.1-2.2c-1.4-1.5-2.1-3.3-2.1-5.5C719.4,138.1,720,136.3,721.4,134.9z M723.9,134.5c-1,0.9-1.6,2.6-1.6,4.9
		c0,1.9,0.4,3.6,1.3,5.2c0.8,1.6,2,2.4,3.5,2.4c1.2,0,2.1-0.5,2.7-1.6c0.6-1.1,0.9-2.5,0.9-4.2c0-1.8-0.4-3.5-1.2-5.1
		c-0.8-1.6-2-2.4-3.5-2.4C725.2,133.7,724.5,134,723.9,134.5z"/>
	<path d="M736.3,142.4h0.5c0.2,1.2,0.6,2.1,1,2.7c0.7,1.2,1.8,1.8,3.2,1.8c0.8,0,1.4-0.2,1.8-0.6s0.7-1,0.7-1.7
		c0-0.4-0.1-0.9-0.4-1.3c-0.3-0.4-0.7-0.8-1.4-1.2l-1.7-1c-1.3-0.7-2.2-1.4-2.8-2.1c-0.6-0.7-0.9-1.5-0.9-2.5c0-1.2,0.4-2.1,1.3-2.9
		c0.8-0.8,1.9-1.1,3.1-1.1c0.6,0,1.2,0.1,1.8,0.3c0.7,0.2,1,0.3,1.1,0.3c0.2,0,0.3,0,0.4-0.1c0.1,0,0.2-0.1,0.2-0.2h0.4l0.1,4.4
		h-0.5c-0.2-1-0.5-1.8-0.8-2.4c-0.7-1-1.6-1.6-2.8-1.6c-0.7,0-1.3,0.2-1.7,0.7c-0.4,0.4-0.6,1-0.6,1.6c0,1,0.7,1.8,2.2,2.6l2.1,1.1
		c2.2,1.2,3.3,2.6,3.3,4.2c0,1.2-0.5,2.2-1.4,3s-2.1,1.2-3.6,1.2c-0.6,0-1.3-0.1-2.1-0.3c-0.8-0.2-1.3-0.3-1.4-0.3
		c-0.1,0-0.2,0-0.3,0.1c-0.1,0.1-0.2,0.2-0.2,0.3h-0.4V142.4z"/>
	<path d="M756,147c3.8-4,6.4-6.9,7.7-8.7c1.4-1.9,2-3.7,2-5.4c0-1.5-0.4-2.7-1.2-3.5s-1.8-1.2-3-1.2c-1.4,0-2.6,0.5-3.5,1.6
		c-0.5,0.6-1,1.5-1.4,2.6l-0.7-0.1c0.5-2.4,1.4-4.1,2.6-5s2.6-1.4,4-1.4c1.8,0,3.2,0.6,4.3,1.7s1.6,2.5,1.6,4.1
		c0,1.7-0.6,3.4-1.8,4.9c-1.2,1.6-3.7,4.4-7.6,8.5h7.1c1,0,1.7-0.1,2.1-0.4c0.4-0.2,0.9-0.8,1.4-1.7l0.4,0.2l-1.7,4.4H756V147z"/>
	<path d="M776.7,136.7c0,4.3-0.3,7.2-0.8,8.8c-0.3,0.8-0.6,1.4-1,1.8c-0.4,0.3-0.9,0.5-1.5,0.5c-0.6,0-1.1-0.1-1.4-0.4
		c-0.3-0.3-0.6-0.6-0.7-1c-0.1-0.4-0.2-0.9-0.2-1.4c0-0.5,0-1-0.1-1.5h0.8c0,0.4,0.1,0.8,0.3,1.2c0.2,0.4,0.6,0.7,1,0.7
		c1,0,1.7-0.9,2.2-2.7c0.4-1.7,0.6-4,0.6-6.9v-1H774c-0.6,0-1.1,0.2-1.4,0.5c-0.3,0.3-0.6,0.7-0.7,1.2h-0.8c0.1-0.7,0.3-1.3,0.5-1.9
		c0.2-0.5,0.5-0.9,0.8-1.3c0.4-0.3,0.9-0.6,1.5-0.7c0.6-0.1,1.5-0.2,2.5-0.2c3.8,0.1,7.1,0.1,9.9,0.2c0.5,0,0.8-0.1,1-0.3
		c0.2-0.2,0.2-0.4,0.3-0.6h0.6c0,1.2-0.3,2-0.7,2.5c-0.4,0.4-1,0.6-1.9,0.6H784v9.4c0,1.5,0.4,2.3,1.4,2.3c0.4,0,0.7-0.2,0.9-0.5
		c0.2-0.3,0.4-0.6,0.5-1c0.2-0.9,0.3-1.7,0.3-2.6h0.8c0,0.5,0,1.1-0.1,1.7c-0.1,0.6-0.2,1.1-0.5,1.7c-0.2,0.5-0.6,0.9-1,1.3
		c-0.5,0.4-1.1,0.5-1.9,0.6c-0.6,0-1.2-0.1-1.6-0.3c-0.4-0.2-0.8-0.5-1-0.9c-0.5-0.8-0.7-1.6-0.7-2.6v-9.1h-4.5V136.7z"/>
	<path d="M801.8,128.6c-0.2,0.3-0.6,0.4-1,0.4c-0.4,0-0.7-0.1-0.9-0.3c-0.2-0.2-0.3-0.5-0.3-0.8c0-0.2,0.1-0.6,0.3-1.1
		c0-0.1-0.1-0.3-0.2-0.4c-0.1-0.1-0.3-0.1-0.4-0.1c-0.8,0-1.4,0.8-2,2.5c-0.3,1-0.6,2.6-1,4.9h3.5l-0.2,1.1H796l-3,10.2
		c-0.6,2.7-1.5,4.9-2.5,6.6c-1.1,1.7-2.4,2.5-4.1,2.5c-0.8,0-1.4-0.2-1.9-0.6c-0.5-0.4-0.7-0.9-0.7-1.4c0-0.3,0.1-0.6,0.3-0.9
		c0.2-0.3,0.5-0.4,0.9-0.4c0.4,0,0.7,0.1,0.9,0.3c0.2,0.2,0.4,0.5,0.4,0.9c0,0.2-0.1,0.4-0.2,0.6c-0.1,0.2-0.2,0.3-0.2,0.4
		c0,0.1,0.1,0.2,0.2,0.2c0.1,0.1,0.3,0.1,0.5,0.1c0.9,0,1.6-0.7,2.3-2.1c0.3-0.7,0.6-1.7,0.9-3l3.7-13.4h-2.9l0.2-1.1h3
		c0.6-2.4,1.2-4.2,1.9-5.4c1.1-1.8,2.4-2.7,3.9-2.7c0.7,0,1.3,0.2,1.8,0.6c0.5,0.4,0.7,0.9,0.7,1.4C802.2,128,802,128.3,801.8,128.6
		z"/>
	<path d="M805.7,142.3c0.7,1.3,1,2.7,1,4.4c0,1.3-0.2,2.5-0.6,3.7c-0.8,2.2-2.1,3.2-4,3.2c-1.3,0-2.3-0.6-3.2-1.7
		c-0.9-1.2-1.3-2.9-1.3-5.1c0-1.7,0.3-3.1,0.9-4.3c0.8-1.6,2-2.5,3.7-2.5C803.7,140,804.9,140.8,805.7,142.3z M804.2,151.5
		c0.4-1,0.5-2.6,0.5-4.5c0-1.6-0.1-2.8-0.3-3.8c-0.4-1.8-1.2-2.6-2.3-2.6c-1.1,0-1.9,0.9-2.3,2.7c-0.2,1-0.3,2.2-0.3,3.8
		c0,1.5,0.1,2.7,0.3,3.5c0.4,1.7,1.2,2.5,2.3,2.5C803.2,153,803.9,152.5,804.2,151.5z"/>
	<path d="M808.7,146.1c0-0.1,0-0.2,0.1-0.3l3-10.9h-2.4c0-0.3,0-0.5,0.1-0.5c0-0.1,0.1-0.1,0.3-0.2c1.1-0.5,1.9-0.9,2.5-1.3
		c0.6-0.4,1.4-1.2,2.4-2.4l0.2-0.3c0,0,0.1-0.1,0.1-0.1c0,0,0.1,0,0.1,0c0.1,0,0.2,0,0.2,0.1c0,0.1,0,0.1,0.1,0.2c0,0.1,0,0.1,0,0.2
		l-0.9,3.4h2.6l-0.2,1.1h-2.7l-2.9,10.5c-0.1,0.2,0,0.4,0,0.5c0.1,0.2,0.2,0.3,0.4,0.3c0.3,0,0.7-0.3,1.1-0.8
		c0.3-0.3,0.8-0.9,1.4-1.7l0.4,0.2l-0.2,0.3c-0.9,1.3-1.7,2.3-2.4,2.8c-0.7,0.5-1.3,0.8-1.9,0.8c-0.5,0-0.9-0.1-1.2-0.4
		c-0.2-0.3-0.4-0.6-0.4-1C808.7,146.3,808.7,146.2,808.7,146.1z"/>
</g>
<g>
	<path d="M913.9,137h0.5c0.2,1.3,0.5,2.2,0.8,2.8c0.6,1.1,1.4,1.6,2.6,1.6c0.6,0,1.2-0.2,1.6-0.7c0.4-0.4,0.6-1,0.6-1.8
		c0-0.5-0.1-0.8-0.2-1.1c-0.1-0.3-0.2-0.6-0.4-0.8l-1.3-1.9c-0.8-1.2-1.3-1.9-1.5-2.3c-0.3-0.6-0.5-1.2-0.5-1.8c0-0.9,0.3-1.7,1-2.4
		c0.7-0.7,1.6-1,2.8-1c0.5,0,1.1,0.1,1.8,0.3c0.7,0.2,1.1,0.3,1.3,0.3c0.3,0,0.5-0.1,0.6-0.2c0.1-0.1,0.2-0.2,0.3-0.4h0.5l-0.7,4.4
		h-0.5c-0.1-1-0.3-1.8-0.6-2.3c-0.5-0.9-1.3-1.4-2.4-1.4c-0.5,0-0.9,0.1-1.2,0.4c-0.4,0.3-0.5,0.7-0.5,1.3c0,0.4,0.1,0.8,0.2,1.1
		c0.2,0.3,0.5,0.9,1.1,1.7l1.1,1.6c0.6,0.8,1,1.5,1.2,2c0.2,0.5,0.4,1.1,0.4,1.7c0,1.1-0.5,2.1-1.4,2.8c-1,0.8-2.1,1.2-3.4,1.2
		c-0.4,0-1-0.1-1.8-0.3c-0.8-0.2-1.2-0.3-1.4-0.3c-0.2,0-0.4,0-0.5,0.1c-0.1,0.1-0.2,0.2-0.3,0.4h-0.5L913.9,137z"/>
	<path d="M929.9,124.2c1.3-1.7,2.9-3,4.7-4l0.3,0.5c-1.7,1.3-2.9,2.6-3.6,3.9c-1.3,2.2-1.9,5.1-1.9,8.8c0,2.7,0.2,4.9,0.7,6.7
		c0.8,3.1,2.4,5.4,4.8,6.9l-0.4,0.5c-1.3-0.6-2.7-1.8-4.2-3.6c-2.5-3-3.7-6.3-3.7-10.1C926.7,130.1,927.8,126.9,929.9,124.2z"/>
	<path d="M937.1,140.4c0-0.1,0-0.2,0.1-0.3l3-10.9h-2.4c0-0.3,0-0.5,0.1-0.5c0-0.1,0.1-0.1,0.3-0.2c1.1-0.5,1.9-0.9,2.5-1.3
		c0.6-0.4,1.4-1.2,2.4-2.4l0.2-0.3c0,0,0.1-0.1,0.1-0.1c0,0,0.1,0,0.1,0c0.1,0,0.2,0,0.2,0.1c0,0.1,0,0.1,0.1,0.2c0,0.1,0,0.1,0,0.2
		l-0.9,3.4h2.6l-0.2,1.1h-2.7l-2.9,10.5c-0.1,0.2,0,0.4,0,0.5c0.1,0.2,0.2,0.3,0.4,0.3c0.3,0,0.7-0.3,1.1-0.8
		c0.3-0.3,0.8-0.9,1.4-1.7l0.4,0.2l-0.2,0.3c-0.9,1.3-1.7,2.3-2.4,2.8c-0.7,0.5-1.3,0.8-1.9,0.8c-0.5,0-0.9-0.1-1.2-0.4
		c-0.2-0.3-0.4-0.6-0.4-1C937,140.6,937.1,140.5,937.1,140.4z"/>
	<path d="M953.3,138.3c-0.4,1.4-1,2.7-1.8,3.9c-0.8,1.3-1.9,2.5-3.3,3.7c-0.9,0.8-1.7,1.3-2.3,1.6l-0.3-0.5c1.6-1.2,2.8-2.5,3.5-3.7
		c1.3-2.3,2-5.2,2-8.9c0-3-0.3-5.4-0.9-7.3c-0.8-2.7-2.4-4.8-4.6-6.3l0.4-0.5c1.6,0.9,3.2,2.3,4.6,4.2c2.2,2.9,3.3,6.1,3.3,9.6
		C953.9,135.4,953.7,136.9,953.3,138.3z"/>
</g>
<g>
	<path d="M709.7,184.8v1.6h-16.2v-1.6H709.7z"/>
	<path d="M711.4,187.8h0.5c0.2,1.2,0.6,2.1,1,2.7c0.7,1.2,1.8,1.8,3.2,1.8c0.8,0,1.4-0.2,1.8-0.6c0.5-0.4,0.7-1,0.7-1.7
		c0-0.4-0.1-0.9-0.4-1.3c-0.3-0.4-0.7-0.8-1.4-1.2l-1.7-1c-1.3-0.7-2.2-1.4-2.8-2.1s-0.9-1.5-0.9-2.5c0-1.2,0.4-2.1,1.3-2.9
		c0.8-0.8,1.9-1.1,3.1-1.1c0.6,0,1.2,0.1,1.8,0.3c0.7,0.2,1,0.3,1.1,0.3c0.2,0,0.3,0,0.4-0.1c0.1,0,0.2-0.1,0.2-0.2h0.4l0.1,4.4
		h-0.5c-0.2-1-0.5-1.8-0.8-2.4c-0.7-1-1.6-1.6-2.8-1.6c-0.7,0-1.3,0.2-1.7,0.7s-0.6,1-0.6,1.6c0,1,0.7,1.8,2.2,2.6l2.1,1.1
		c2.2,1.2,3.3,2.6,3.3,4.2c0,1.2-0.5,2.2-1.4,3s-2.1,1.2-3.6,1.2c-0.6,0-1.3-0.1-2.1-0.3c-0.8-0.2-1.3-0.3-1.4-0.3
		c-0.1,0-0.2,0-0.3,0.1c-0.1,0.1-0.2,0.2-0.2,0.3h-0.4V187.8z"/>
	<path d="M722.8,192.3c1.1-0.1,1.8-0.3,2.1-0.6s0.4-1,0.4-2.2V182c0-0.7,0-1.1-0.1-1.4c-0.2-0.4-0.5-0.6-1-0.6c-0.1,0-0.2,0-0.3,0
		s-0.4,0.1-0.9,0.2v-0.5l0.7-0.2c1.8-0.6,3.1-1,3.8-1.3c0.3-0.1,0.5-0.2,0.6-0.2c0,0.1,0,0.2,0,0.2v11.2c0,1.2,0.1,1.9,0.4,2.2
		c0.3,0.3,0.9,0.5,1.9,0.6v0.4h-7.6V192.3z M725.3,171.4c0.3-0.3,0.7-0.5,1.2-0.5c0.4,0,0.8,0.2,1.1,0.5c0.3,0.3,0.5,0.7,0.5,1.2
		c0,0.4-0.2,0.8-0.5,1.1c-0.3,0.3-0.7,0.5-1.1,0.5c-0.5,0-0.8-0.2-1.2-0.5s-0.5-0.7-0.5-1.1C724.8,172.1,725,171.7,725.3,171.4z"/>
	<path d="M731.6,192.3c0.7-0.1,1.3-0.3,1.6-0.5c0.3-0.3,0.4-0.9,0.4-1.8v-8c0-0.7-0.1-1.1-0.2-1.4c-0.2-0.4-0.6-0.6-1.2-0.6
		c-0.1,0-0.2,0-0.3,0c-0.1,0-0.2,0-0.4,0v-0.6c0.4-0.1,1.4-0.5,3-1l1.5-0.5c0.1,0,0.1,0,0.1,0.1s0,0.1,0,0.2v2.3
		c1-0.9,1.7-1.5,2.2-1.9c0.8-0.5,1.6-0.8,2.5-0.8c0.7,0,1.3,0.2,1.9,0.6c1.1,0.8,1.7,2.2,1.7,4.2v7.3c0,0.8,0.2,1.3,0.5,1.6
		c0.3,0.3,0.8,0.5,1.5,0.5v0.4h-6.7v-0.4c0.8-0.1,1.3-0.3,1.6-0.6c0.3-0.3,0.5-1,0.5-2.1v-6.7c0-0.9-0.2-1.6-0.5-2.2
		c-0.3-0.6-0.9-0.9-1.8-0.9c-0.6,0-1.2,0.2-1.9,0.6c-0.3,0.2-0.8,0.6-1.4,1.2v8.8c0,0.8,0.2,1.3,0.5,1.5c0.3,0.3,0.9,0.4,1.6,0.4
		v0.4h-6.8V192.3z"/>
	<path d="M756,192.4c3.8-4,6.4-6.9,7.7-8.7c1.4-1.9,2-3.7,2-5.4c0-1.5-0.4-2.7-1.2-3.5s-1.8-1.2-3-1.2c-1.4,0-2.6,0.5-3.5,1.6
		c-0.5,0.6-1,1.5-1.4,2.6l-0.7-0.1c0.5-2.4,1.4-4.1,2.6-5s2.6-1.4,4-1.4c1.8,0,3.2,0.6,4.3,1.7s1.6,2.5,1.6,4.1
		c0,1.7-0.6,3.4-1.8,4.9s-3.7,4.4-7.6,8.5h7.1c1,0,1.7-0.1,2.1-0.4c0.4-0.2,0.9-0.8,1.4-1.7l0.4,0.2l-1.7,4.4H756V192.4z"/>
	<path d="M776.7,182c0,4.3-0.3,7.2-0.8,8.8c-0.3,0.8-0.6,1.4-1,1.8c-0.4,0.3-0.9,0.5-1.5,0.5c-0.6,0-1.1-0.1-1.4-0.4
		c-0.3-0.3-0.6-0.6-0.7-1c-0.1-0.4-0.2-0.9-0.2-1.4c0-0.5,0-1-0.1-1.5h0.8c0,0.4,0.1,0.8,0.3,1.2c0.2,0.4,0.6,0.7,1,0.7
		c1,0,1.7-0.9,2.2-2.7c0.4-1.7,0.6-4,0.6-6.9v-1H774c-0.6,0-1.1,0.2-1.4,0.5c-0.3,0.3-0.6,0.7-0.7,1.2h-0.8c0.1-0.7,0.3-1.3,0.5-1.9
		c0.2-0.5,0.5-0.9,0.8-1.3c0.4-0.3,0.9-0.6,1.5-0.7c0.6-0.1,1.5-0.2,2.5-0.2c3.8,0.1,7.1,0.1,9.9,0.2c0.5,0,0.8-0.1,1-0.3
		c0.2-0.2,0.2-0.4,0.3-0.6h0.6c0,1.2-0.3,2-0.7,2.5c-0.4,0.4-1,0.6-1.9,0.6H784v9.4c0,1.5,0.4,2.3,1.4,2.3c0.4,0,0.7-0.2,0.9-0.5
		c0.2-0.3,0.4-0.6,0.5-1c0.2-0.9,0.3-1.7,0.3-2.6h0.8c0,0.5,0,1.1-0.1,1.7c-0.1,0.6-0.2,1.1-0.5,1.7c-0.2,0.5-0.6,0.9-1,1.3
		c-0.5,0.4-1.1,0.5-1.9,0.6c-0.6,0-1.2-0.1-1.6-0.3c-0.4-0.2-0.8-0.5-1-0.9c-0.5-0.8-0.7-1.6-0.7-2.6v-9.1h-4.5V182z"/>
	<path d="M801.8,174c-0.2,0.3-0.6,0.4-1,0.4c-0.4,0-0.7-0.1-0.9-0.3s-0.3-0.5-0.3-0.8c0-0.2,0.1-0.6,0.3-1.1c0-0.1-0.1-0.3-0.2-0.4
		c-0.1-0.1-0.3-0.1-0.4-0.1c-0.8,0-1.4,0.8-2,2.5c-0.3,1-0.6,2.6-1,4.9h3.5l-0.2,1.1H796l-3,10.2c-0.6,2.7-1.5,4.9-2.5,6.6
		c-1.1,1.7-2.4,2.5-4.1,2.5c-0.8,0-1.4-0.2-1.9-0.6c-0.5-0.4-0.7-0.9-0.7-1.4c0-0.3,0.1-0.6,0.3-0.9c0.2-0.3,0.5-0.4,0.9-0.4
		c0.4,0,0.7,0.1,0.9,0.3c0.2,0.2,0.4,0.5,0.4,0.9c0,0.2-0.1,0.4-0.2,0.6s-0.2,0.3-0.2,0.4c0,0.1,0.1,0.2,0.2,0.2
		c0.1,0.1,0.3,0.1,0.5,0.1c0.9,0,1.6-0.7,2.3-2.1c0.3-0.7,0.6-1.7,0.9-3l3.7-13.4h-2.9l0.2-1.1h3c0.6-2.4,1.2-4.2,1.9-5.4
		c1.1-1.8,2.4-2.7,3.9-2.7c0.7,0,1.3,0.2,1.8,0.6c0.5,0.4,0.7,0.9,0.7,1.4C802.2,173.4,802,173.7,801.8,174z"/>
	<path d="M805.7,187.7c0.7,1.3,1,2.7,1,4.4c0,1.3-0.2,2.5-0.6,3.7c-0.8,2.2-2.1,3.2-4,3.2c-1.3,0-2.3-0.6-3.2-1.7
		c-0.9-1.2-1.3-2.9-1.3-5.1c0-1.7,0.3-3.1,0.9-4.3c0.8-1.6,2-2.5,3.7-2.5C803.7,185.3,804.9,186.1,805.7,187.7z M804.2,196.8
		c0.4-1,0.5-2.6,0.5-4.5c0-1.6-0.1-2.8-0.3-3.8c-0.4-1.8-1.2-2.6-2.3-2.6c-1.1,0-1.9,0.9-2.3,2.7c-0.2,1-0.3,2.2-0.3,3.8
		c0,1.5,0.1,2.7,0.3,3.5c0.4,1.7,1.2,2.5,2.3,2.5C803.2,198.4,803.9,197.9,804.2,196.8z"/>
	<path d="M808.7,191.5c0-0.1,0-0.2,0.1-0.3l3-10.9h-2.4c0-0.3,0-0.5,0.1-0.5c0-0.1,0.1-0.1,0.3-0.2c1.1-0.5,1.9-0.9,2.5-1.3
		c0.6-0.4,1.4-1.2,2.4-2.4l0.2-0.3c0,0,0.1-0.1,0.1-0.1c0,0,0.1,0,0.1,0c0.1,0,0.2,0,0.2,0.1c0,0.1,0,0.1,0.1,0.2c0,0.1,0,0.1,0,0.2
		l-0.9,3.4h2.6l-0.2,1.1h-2.7l-2.9,10.5c-0.1,0.2,0,0.4,0,0.5c0.1,0.2,0.2,0.3,0.4,0.3c0.3,0,0.7-0.3,1.1-0.8
		c0.3-0.3,0.8-0.9,1.4-1.7l0.4,0.2l-0.2,0.3c-0.9,1.3-1.7,2.3-2.4,2.8c-0.7,0.5-1.3,0.8-1.9,0.8c-0.5,0-0.9-0.1-1.2-0.4
		c-0.2-0.3-0.4-0.6-0.4-1C808.7,191.7,808.7,191.6,808.7,191.5z"/>
</g>
<rect x="510.2" y="22.7" style="&st0;" width="170.1" height="79.4"/>
<circle style="&st0;" cx="759.7" cy="62.4" r="22.7"/>
<line style="&st2;" x1="748.3" y1="51" x2="771" y2="73.7"/>
<line style="&st2;" x1="748.3" y1="73.7" x2="771" y2="51"/>
<g>
	<g>
		<line style="&st2;" x1="453.5" y1="62.4" x2="498.9" y2="62.4"/>
		<polygon points="509.5,62.4 494.6,68.5 498.1,62.4 494.6,56.3 		"/>
	</g>
</g>
<g>
	<g>
		<line style="&st2;" x1="226.8" y1="62.4" x2="272.1" y2="62.4"/>
		<polygon points="282.7,62.4 267.8,68.5 271.3,62.4 267.8,56.3 		"/>
	</g>
</g>
<g>
	<g>
		<line style="&st2;" x1="680.3" y1="62.4" x2="725.7" y2="62.4"/>
		<polygon points="736.3,62.4 721.3,68.5 724.9,62.4 721.3,56.3 		"/>
	</g>
</g>
<rect x="283.5" y="215.4" style="&st0;" width="170.1" height="79.4"/>
<g>
	<path d="M318.5,249c1.1-0.1,1.8-0.3,2.1-0.6c0.3-0.3,0.4-1,0.4-2.2v-7.5c0-0.7,0-1.1-0.1-1.4c-0.2-0.4-0.5-0.6-1-0.6
		c-0.1,0-0.2,0-0.3,0c-0.1,0-0.4,0.1-0.9,0.2v-0.5l0.7-0.2c1.8-0.6,3.1-1,3.8-1.3c0.3-0.1,0.5-0.2,0.6-0.2c0,0.1,0,0.2,0,0.2v11.2
		c0,1.2,0.1,1.9,0.4,2.2c0.3,0.3,0.9,0.5,1.9,0.6v0.4h-7.6V249z M321,228.1c0.3-0.3,0.7-0.5,1.2-0.5c0.4,0,0.8,0.2,1.1,0.5
		c0.3,0.3,0.5,0.7,0.5,1.2c0,0.4-0.2,0.8-0.5,1.1c-0.3,0.3-0.7,0.5-1.1,0.5c-0.5,0-0.8-0.2-1.2-0.5s-0.5-0.7-0.5-1.1
		S320.7,228.4,321,228.1z"/>
	<path d="M327.3,249c0.8-0.1,1.4-0.2,1.6-0.4c0.4-0.3,0.6-0.9,0.6-1.8v-8.1c0-0.8-0.1-1.3-0.3-1.5c-0.2-0.2-0.5-0.4-1-0.4
		c-0.2,0-0.4,0-0.5,0c-0.1,0-0.2,0.1-0.4,0.1v-0.6l1.1-0.4c0.4-0.1,1.1-0.4,2-0.7s1.4-0.5,1.5-0.5c0.1,0,0.1,0,0.1,0.1s0,0.2,0,0.3
		v2.1c1-0.9,1.9-1.6,2.7-2s1.5-0.5,2.3-0.5c1.1,0,1.9,0.4,2.5,1.1c0.3,0.4,0.6,0.9,0.8,1.6c0.8-0.8,1.4-1.4,2-1.7c1-0.6,2-1,3-1
		c1.7,0,2.8,0.7,3.3,2c0.3,0.8,0.5,2,0.5,3.7v6.5c0,0.7,0.2,1.2,0.5,1.5c0.3,0.3,0.9,0.4,1.8,0.5v0.4h-7.1V249
		c0.9-0.1,1.5-0.3,1.8-0.6c0.3-0.3,0.4-0.9,0.4-1.7V240c0-1-0.1-1.8-0.3-2.2c-0.4-0.9-1.1-1.3-2.3-1.3c-0.7,0-1.3,0.2-2,0.7
		c-0.4,0.3-0.9,0.7-1.4,1.3v8c0,0.8,0.1,1.5,0.4,1.9c0.3,0.4,0.9,0.7,1.9,0.7v0.4h-7.2V249c1-0.1,1.6-0.4,1.9-0.7
		c0.3-0.3,0.4-1.2,0.4-2.6v-4.4c0-1.6-0.1-2.7-0.3-3.3c-0.3-1-1.1-1.5-2.2-1.5c-0.6,0-1.2,0.2-1.9,0.5s-1.1,0.8-1.6,1.4v8.5
		c0,0.8,0.1,1.3,0.4,1.6c0.3,0.3,0.9,0.5,1.8,0.5v0.4h-7.2V249z"/>
	<path d="M351.8,255.9c1-0.1,1.6-0.3,1.9-0.6s0.4-0.9,0.4-1.7v-15c0-0.8-0.1-1.3-0.3-1.5c-0.2-0.2-0.6-0.3-1.1-0.3
		c-0.1,0-0.2,0-0.3,0c-0.1,0-0.2,0-0.4,0.1v-0.5l1.5-0.5c0.1,0,1.1-0.4,3.1-1.1c0.1,0,0.1,0,0.1,0.1c0,0,0,0.1,0,0.2v2.1
		c0.7-0.7,1.3-1.2,1.8-1.5c0.9-0.6,1.9-0.9,2.9-0.9c1.4,0,2.7,0.6,3.7,1.8c1,1.2,1.6,2.9,1.6,5c0,2.1-0.6,4-1.9,5.7
		c-1.2,1.7-2.8,2.5-4.7,2.5c-0.6,0-1.1-0.1-1.5-0.2c-0.7-0.2-1.3-0.6-1.8-1.2v5.2c0,1,0.2,1.7,0.5,1.9c0.3,0.2,1.1,0.4,2.3,0.5v0.6
		h-7.7V255.9z M357.9,248.1c0.5,0.3,1.2,0.5,1.9,0.5c1.1,0,2.1-0.6,2.9-1.7s1.2-2.7,1.2-4.7c0-1.9-0.4-3.3-1.2-4.3
		c-0.8-0.9-1.8-1.4-2.9-1.4c-0.8,0-1.5,0.2-2.1,0.7c-0.6,0.5-1,0.9-1,1.4v7.8C357,247.2,357.4,247.8,357.9,248.1z"/>
	<path d="M372.6,235v10c0,0.7,0.1,1.3,0.3,1.7c0.4,0.8,1.1,1.2,2.1,1.2c0.7,0,1.4-0.2,2.1-0.7c0.4-0.3,0.8-0.6,1.2-1.1v-8.5
		c0-0.8-0.2-1.3-0.5-1.6s-0.9-0.4-1.9-0.5V235h5v11c0,0.7,0.1,1.2,0.4,1.5c0.3,0.3,0.8,0.4,1.6,0.4v0.4c-0.6,0.2-1,0.3-1.3,0.4
		c-0.3,0.1-0.7,0.2-1.4,0.4c-0.3,0.1-0.9,0.3-1.8,0.7c-0.1,0-0.1,0-0.1-0.1c0,0,0-0.1,0-0.2v-2.5c-0.7,0.8-1.4,1.5-1.9,1.9
		c-0.9,0.6-1.8,0.9-2.8,0.9c-0.9,0-1.8-0.3-2.6-1c-0.8-0.6-1.2-1.7-1.2-3.2v-8.1c0-0.8-0.2-1.4-0.5-1.7c-0.2-0.2-0.7-0.3-1.5-0.4
		V235H372.6z"/>
	<path d="M384.3,249c1-0.1,1.6-0.3,2-0.6s0.5-0.9,0.5-1.8v-15.2c0-0.7-0.1-1.2-0.2-1.4c-0.2-0.4-0.6-0.7-1.3-0.7c-0.1,0-0.3,0-0.5,0
		s-0.4,0.1-0.6,0.1V229c1.4-0.4,3.1-0.9,5.1-1.5c0.1,0,0.1,0,0.1,0.1s0,0.2,0,0.4v18.7c0,0.9,0.2,1.5,0.5,1.8s1,0.4,1.9,0.5v0.4
		h-7.6V249z"/>
	<path d="M394.2,244.5h0.5c0.2,1.2,0.6,2.1,1,2.7c0.7,1.2,1.8,1.8,3.2,1.8c0.8,0,1.4-0.2,1.8-0.6s0.7-1,0.7-1.7
		c0-0.4-0.1-0.9-0.4-1.3c-0.3-0.4-0.7-0.8-1.4-1.2l-1.7-1c-1.3-0.7-2.2-1.4-2.8-2.1c-0.6-0.7-0.9-1.5-0.9-2.5c0-1.2,0.4-2.1,1.3-2.9
		s1.9-1.1,3.1-1.1c0.6,0,1.2,0.1,1.8,0.3c0.7,0.2,1,0.3,1.1,0.3c0.2,0,0.3,0,0.4-0.1s0.2-0.1,0.2-0.2h0.4l0.1,4.4h-0.5
		c-0.2-1-0.5-1.8-0.8-2.4c-0.6-1-1.6-1.6-2.8-1.6c-0.7,0-1.3,0.2-1.7,0.7c-0.4,0.4-0.6,1-0.6,1.6c0,1,0.7,1.8,2.2,2.6l2.1,1.1
		c2.2,1.2,3.3,2.6,3.3,4.2c0,1.2-0.5,2.2-1.4,3s-2.1,1.2-3.6,1.2c-0.6,0-1.3-0.1-2.1-0.3s-1.3-0.3-1.4-0.3c-0.1,0-0.2,0-0.3,0.1
		c-0.1,0.1-0.2,0.2-0.2,0.3h-0.4V244.5z"/>
	<path d="M416.1,236.3c1.1,1,1.7,2.5,1.7,4.3h-9.9c0.1,2.4,0.6,4.2,1.6,5.3s2.2,1.6,3.5,1.6c1.1,0,2-0.3,2.8-0.9
		c0.7-0.6,1.4-1.4,2.1-2.4l0.5,0.2c-0.4,1.3-1.2,2.6-2.4,3.7c-1.2,1.1-2.6,1.7-4.3,1.7c-2,0-3.5-0.7-4.5-2.2
		c-1.1-1.5-1.6-3.2-1.6-5.1c0-2.1,0.6-3.9,1.9-5.4c1.2-1.5,2.9-2.3,4.8-2.3C413.8,234.8,415,235.3,416.1,236.3z M408.7,237.5
		c-0.3,0.6-0.6,1.3-0.7,2.1h6.5c-0.1-1-0.3-1.8-0.6-2.3c-0.5-0.9-1.4-1.4-2.5-1.4C410.2,235.9,409.3,236.5,408.7,237.5z"/>
	<path d="M311.1,274.5c-0.5-0.8-0.8-1.7-0.8-2.7c0-1.2,0.5-2.4,1.5-3.5s2.3-1.6,4.1-1.6c0.8,0,1.6,0.2,2.5,0.5
		c0.9,0.4,1.8,0.5,2.6,0.5c0.2,0,0.6,0,1,0s0.8,0,1,0h0.2v1.3h-2.7c0.2,0.4,0.3,0.8,0.4,1.1c0.2,0.6,0.3,1.2,0.3,1.7
		c0,1.2-0.5,2.3-1.5,3.3c-1,1-2.3,1.5-4,1.5c-0.3,0-0.7,0-1.4-0.1c-0.3,0-0.7,0.3-1.2,0.8s-0.7,0.9-0.7,1.3c0,0.3,0.4,0.6,1.1,0.7
		c0.5,0.1,1,0.2,1.6,0.2c2.7,0,4.5,0.2,5.4,0.5c1.6,0.5,2.4,1.5,2.4,3.2c0,1.6-0.9,3-2.8,3.9c-1.8,1-3.7,1.5-5.6,1.5
		c-1.7,0-3.1-0.3-4.1-1s-1.5-1.4-1.5-2.2c0-0.4,0.1-0.7,0.4-1.1c0.3-0.4,0.8-0.9,1.6-1.6l1-0.9l0.2-0.2c-0.5-0.2-0.8-0.4-1.1-0.5
		c-0.4-0.3-0.6-0.7-0.6-1.1c0-0.4,0.2-0.8,0.5-1.3c0.4-0.5,1.1-1.2,2.3-2.3C312.3,275.9,311.6,275.3,311.1,274.5z M312.7,286.2
		c1,0.3,2.1,0.5,3.4,0.5c1.7,0,3.1-0.3,4.2-0.9c1.1-0.6,1.6-1.3,1.6-2.2c0-0.7-0.4-1.2-1.3-1.4c-0.5-0.1-1.6-0.2-3.1-0.2
		c-0.4,0-0.8,0-1.2,0s-0.8,0-1.2-0.1c-0.2,0-0.6-0.1-1.1-0.1c-0.5-0.1-0.9-0.1-1.1-0.2c-0.1,0-0.4,0.3-0.9,1
		c-0.5,0.7-0.8,1.3-0.8,1.8C311.3,285.2,311.7,285.8,312.7,286.2z M317.7,275.4c0.6-0.5,0.9-1.4,0.9-2.6c0-1-0.3-2.1-0.8-3.3
		s-1.3-1.9-2.5-1.9c-1,0-1.7,0.5-2.1,1.5c-0.2,0.5-0.3,1.1-0.3,1.9c0,1.3,0.3,2.4,0.9,3.4s1.4,1.5,2.4,1.5
		C316.8,275.9,317.3,275.7,317.7,275.4z"/>
	<path d="M335.3,268.3c1.1,1,1.7,2.5,1.7,4.3h-9.9c0.1,2.4,0.6,4.2,1.6,5.3s2.2,1.6,3.5,1.6c1.1,0,2-0.3,2.8-0.9
		c0.7-0.6,1.4-1.4,2.1-2.4l0.5,0.2c-0.4,1.3-1.2,2.6-2.4,3.7s-2.6,1.7-4.3,1.7c-2,0-3.5-0.7-4.5-2.2c-1.1-1.5-1.6-3.2-1.6-5.1
		c0-2.1,0.6-3.9,1.9-5.4c1.2-1.5,2.9-2.3,4.8-2.3C332.9,266.8,334.2,267.3,335.3,268.3z M327.8,269.5c-0.3,0.6-0.6,1.3-0.7,2.1h6.5
		c-0.1-1-0.3-1.8-0.6-2.3c-0.5-0.9-1.4-1.4-2.5-1.4C329.4,267.9,328.5,268.5,327.8,269.5z"/>
	<path d="M338.9,281c0.7-0.1,1.3-0.3,1.6-0.5c0.3-0.3,0.4-0.9,0.4-1.8v-8c0-0.7-0.1-1.1-0.2-1.4c-0.2-0.4-0.6-0.6-1.2-0.6
		c-0.1,0-0.2,0-0.3,0c-0.1,0-0.2,0-0.4,0v-0.6c0.4-0.1,1.4-0.5,3-1l1.5-0.5c0.1,0,0.1,0,0.1,0.1s0,0.1,0,0.2v2.3
		c1-0.9,1.7-1.5,2.2-1.9c0.8-0.5,1.6-0.8,2.5-0.8c0.7,0,1.3,0.2,1.9,0.6c1.1,0.8,1.7,2.2,1.7,4.2v7.3c0,0.8,0.2,1.3,0.5,1.6
		c0.3,0.3,0.8,0.5,1.5,0.5v0.4h-6.7V281c0.8-0.1,1.3-0.3,1.6-0.6c0.3-0.3,0.5-1,0.5-2.1v-6.7c0-0.9-0.2-1.6-0.5-2.2
		c-0.3-0.6-0.9-0.9-1.8-0.9c-0.6,0-1.2,0.2-1.9,0.6c-0.4,0.2-0.8,0.6-1.4,1.2v8.8c0,0.8,0.2,1.3,0.5,1.5c0.3,0.3,0.9,0.4,1.6,0.4
		v0.4h-6.8V281z"/>
	<path d="M365.5,268.3c1.1,1,1.7,2.5,1.7,4.3h-9.9c0.1,2.4,0.6,4.2,1.6,5.3s2.2,1.6,3.5,1.6c1.1,0,2-0.3,2.8-0.9
		c0.7-0.6,1.4-1.4,2.1-2.4l0.5,0.2c-0.4,1.3-1.2,2.6-2.4,3.7s-2.6,1.7-4.3,1.7c-2,0-3.5-0.7-4.5-2.2c-1.1-1.5-1.6-3.2-1.6-5.1
		c0-2.1,0.6-3.9,1.9-5.4c1.2-1.5,2.9-2.3,4.8-2.3C363.1,266.8,364.4,267.3,365.5,268.3z M358,269.5c-0.3,0.6-0.6,1.3-0.7,2.1h6.5
		c-0.1-1-0.3-1.8-0.6-2.3c-0.5-0.9-1.4-1.4-2.5-1.4C359.6,267.9,358.7,268.5,358,269.5z"/>
	<path d="M368.7,280.9c1-0.1,1.6-0.2,1.9-0.5s0.5-0.8,0.5-1.6v-7.1c0-1-0.1-1.8-0.3-2.2c-0.2-0.4-0.5-0.7-1.1-0.7
		c-0.1,0-0.2,0-0.4,0c-0.2,0-0.4,0.1-0.5,0.1v-0.5c0.6-0.2,1.2-0.4,1.8-0.6s1.1-0.4,1.3-0.5c0.5-0.2,1.1-0.4,1.6-0.7
		c0.1,0,0.1,0,0.1,0.1s0,0.2,0,0.4v2.6c0.7-0.9,1.3-1.7,1.9-2.2c0.6-0.5,1.3-0.8,1.9-0.8c0.5,0,1,0.2,1.3,0.5
		c0.3,0.3,0.5,0.7,0.5,1.2c0,0.4-0.1,0.8-0.4,1.1c-0.3,0.3-0.6,0.4-1,0.4c-0.4,0-0.8-0.2-1.2-0.5s-0.7-0.5-0.9-0.5
		c-0.4,0-0.8,0.3-1.3,0.9c-0.5,0.6-0.8,1.2-0.8,1.8v7c0,0.9,0.2,1.5,0.6,1.9c0.4,0.3,1.1,0.5,2.1,0.5v0.5h-7.7V280.9z"/>
	<path d="M382.6,274.6c1-0.6,2.9-1.5,5.7-2.6v-1.3c0-1.1-0.1-1.8-0.3-2.2c-0.4-0.7-1.1-1-2.2-1c-0.5,0-1,0.1-1.5,0.4
		c-0.5,0.3-0.7,0.7-0.7,1.2c0,0.1,0,0.3,0.1,0.6c0.1,0.3,0.1,0.5,0.1,0.6c0,0.6-0.2,1-0.6,1.2c-0.2,0.1-0.5,0.2-0.8,0.2
		c-0.5,0-0.8-0.2-1.1-0.5s-0.4-0.6-0.4-1c0-0.7,0.5-1.5,1.4-2.3c0.9-0.8,2.2-1.2,4-1.2c2,0,3.4,0.7,4.1,2c0.4,0.7,0.6,1.8,0.6,3.1
		v6.3c0,0.6,0,1,0.1,1.2c0.1,0.4,0.4,0.6,0.8,0.6c0.2,0,0.4,0,0.6-0.1c0.2-0.1,0.4-0.3,0.8-0.5v0.8c-0.3,0.4-0.7,0.7-1.1,1
		c-0.6,0.4-1.2,0.6-1.8,0.6c-0.7,0-1.2-0.2-1.5-0.7s-0.5-1-0.5-1.6c-0.8,0.7-1.5,1.2-2,1.5c-1,0.6-1.9,0.8-2.7,0.8
		c-0.9,0-1.7-0.3-2.3-0.9c-0.7-0.6-1-1.4-1-2.4C380.3,276.8,381.1,275.6,382.6,274.6z M388.3,272.8c-1.2,0.4-2.2,0.8-3,1.3
		c-1.5,0.9-2.2,2-2.2,3.2c0,0.9,0.3,1.6,0.9,2.1c0.4,0.3,0.9,0.4,1.4,0.4c0.7,0,1.3-0.2,2-0.6c0.6-0.4,0.9-0.9,0.9-1.5V272.8z"/>
	<path d="M401.5,267.1v1.1h-3.2l0,8.9c0,0.8,0.1,1.4,0.2,1.8c0.3,0.7,0.7,1.1,1.5,1.1c0.4,0,0.7-0.1,1-0.3c0.3-0.2,0.6-0.5,1-0.8
		l0.4,0.3l-0.3,0.5c-0.5,0.7-1.1,1.3-1.7,1.6s-1.2,0.5-1.8,0.5c-1.2,0-2.1-0.5-2.5-1.6c-0.2-0.6-0.4-1.4-0.4-2.5v-9.4h-1.7
		c-0.1,0-0.1-0.1-0.1-0.1s0-0.1,0-0.1c0-0.1,0-0.2,0.1-0.2c0-0.1,0.2-0.2,0.4-0.4c0.7-0.6,1.2-1.1,1.6-1.5c0.3-0.4,1.1-1.4,2.2-2.9
		c0.1,0,0.2,0,0.2,0c0,0,0,0.1,0,0.2v3.9H401.5z"/>
	<path d="M405,268.9c1.3-1.4,3-2.2,5.1-2.2c2.1,0,3.8,0.7,5.1,2c1.4,1.4,2,3.2,2,5.4c0,2.1-0.7,3.9-2,5.4s-3,2.3-5.1,2.3
		c-2,0-3.7-0.7-5.1-2.2c-1.4-1.5-2.1-3.3-2.1-5.5C403.1,272.1,403.7,270.4,405,268.9z M407.5,268.5c-1,0.9-1.6,2.6-1.6,4.9
		c0,1.9,0.4,3.6,1.3,5.2c0.8,1.6,2,2.4,3.5,2.4c1.2,0,2.1-0.5,2.7-1.6s0.9-2.5,0.9-4.2c0-1.8-0.4-3.5-1.2-5.1s-2-2.4-3.5-2.4
		C408.9,267.7,408.1,268,407.5,268.5z"/>
	<path d="M418.4,280.9c1-0.1,1.6-0.2,1.9-0.5s0.5-0.8,0.5-1.6v-7.1c0-1-0.1-1.8-0.3-2.2c-0.2-0.4-0.5-0.7-1.1-0.7
		c-0.1,0-0.2,0-0.4,0c-0.2,0-0.4,0.1-0.5,0.1v-0.5c0.6-0.2,1.2-0.4,1.8-0.6s1.1-0.4,1.3-0.5c0.5-0.2,1.1-0.4,1.6-0.7
		c0.1,0,0.1,0,0.1,0.1s0,0.2,0,0.4v2.6c0.7-0.9,1.3-1.7,1.9-2.2c0.6-0.5,1.3-0.8,1.9-0.8c0.5,0,1,0.2,1.3,0.5
		c0.3,0.3,0.5,0.7,0.5,1.2c0,0.4-0.1,0.8-0.4,1.1c-0.3,0.3-0.6,0.4-1,0.4c-0.4,0-0.8-0.2-1.2-0.5s-0.7-0.5-0.9-0.5
		c-0.4,0-0.8,0.3-1.3,0.9c-0.5,0.6-0.8,1.2-0.8,1.8v7c0,0.9,0.2,1.5,0.6,1.9c0.4,0.3,1.1,0.5,2.1,0.5v0.5h-7.7V280.9z"/>
</g>
<rect x="510.2" y="215.4" style="&st0;" width="170.1" height="79.4"/>
<circle style="&st0;" cx="759.7" cy="255.1" r="22.7"/>
<line style="&st2;" x1="748.3" y1="243.8" x2="771" y2="266.5"/>
<line style="&st2;" x1="748.3" y1="266.5" x2="771" y2="243.8"/>
<g>
	<g>
		<line style="&st2;" x1="453.5" y1="255.1" x2="498.9" y2="255.1"/>
		<polygon points="509.5,255.1 494.6,261.2 498.1,255.1 494.6,249 		"/>
	</g>
</g>
<g>
	<g>
		<line style="&st2;" x1="226.8" y1="255.1" x2="272.1" y2="255.1"/>
		<polygon points="282.7,255.1 267.8,261.2 271.3,255.1 267.8,249 		"/>
	</g>
</g>
<g>
	<g>
		<line style="&st2;" x1="680.3" y1="255.1" x2="725.7" y2="255.1"/>
		<polygon points="736.3,255.1 721.3,261.2 724.9,255.1 721.3,249 		"/>
	</g>
</g>
<line style="&st2;" x1="782.4" y1="62.4" x2="861.7" y2="62.4"/>
<line style="&st2;" x1="782.4" y1="255.1" x2="861.7" y2="255.1"/>
<g>
	<g>
		<line style="&st2;" x1="884.4" y1="158.7" x2="929.8" y2="158.7"/>
		<polygon points="940.4,158.7 925.4,164.8 929,158.7 925.4,152.6 		"/>
	</g>
</g>
<line style="&st2;" x1="226.8" y1="62.4" x2="226.8" y2="255.1"/>
<g>
	<g>
		<line style="&st2;" x1="759.7" y1="119.1" x2="759.7" y2="96.4"/>
		<polygon points="759.7,85.8 765.8,100.7 759.7,97.2 753.6,100.7 		"/>
	</g>
</g>
<g>
	<g>
		<line style="&st2;" x1="759.7" y1="198.4" x2="759.7" y2="221.1"/>
		<polygon points="759.7,231.7 753.6,216.8 759.7,220.3 765.8,216.8 		"/>
	</g>
</g>
<line style="&st2;" x1="861.7" y1="62.4" x2="861.7" y2="255.1"/>
<g>
	<path d="M560.2,260.3c0.8-0.1,1.3-0.2,1.5-0.4c0.4-0.3,0.8-1,1.1-1.9l3.9-14.2c0.1-0.6,0.2-1,0.3-1.2c0.1-0.2,0.1-0.5,0.1-0.7
		c0-0.5-0.2-0.9-0.5-1.1s-1-0.3-1.9-0.3v-0.5h8.7v0.5c-0.9,0.1-1.5,0.2-1.9,0.4c-0.6,0.4-1.1,1-1.4,1.9l-1.7,6.2h9.9l1.6-5.7
		c0.1-0.4,0.2-0.7,0.2-1c0-0.2,0-0.4,0-0.6c0-0.5-0.3-0.9-0.8-1.1c-0.3-0.1-0.8-0.2-1.5-0.2v-0.5h7.9v0.5c-0.8,0.1-1.4,0.3-1.7,0.5
		c-0.3,0.2-0.6,0.8-0.9,1.8l-3.9,14.2l-0.3,1.2c0,0.1,0,0.2-0.1,0.3s0,0.2,0,0.3c0,0.6,0.2,1,0.5,1.2c0.4,0.2,1,0.3,1.9,0.3v0.5
		h-8.7v-0.5c0.8-0.1,1.5-0.2,1.8-0.4c0.6-0.4,1.1-1,1.4-1.9l2.1-7.6H568l-1.8,6.6l-0.3,1.2c0,0.1,0,0.2-0.1,0.3s0,0.2,0,0.3
		c0,0.6,0.2,1,0.5,1.1s0.9,0.3,1.8,0.3v0.5h-7.9V260.3z"/>
	<path d="M583.7,266c0-0.1,0-0.1,0-0.2l1.9-6.8h-1.5c0-0.2,0-0.3,0-0.3c0,0,0.1-0.1,0.2-0.1c0.7-0.3,1.2-0.6,1.5-0.8
		c0.4-0.3,0.9-0.8,1.5-1.5l0.2-0.2c0,0,0,0,0.1-0.1c0,0,0.1,0,0.1,0c0.1,0,0.1,0,0.1,0c0,0,0,0.1,0,0.1c0,0,0,0.1,0,0.1l-0.6,2.1
		h1.6l-0.1,0.7h-1.7l-1.8,6.6c0,0.1,0,0.2,0,0.3s0.1,0.2,0.3,0.2c0.2,0,0.4-0.2,0.7-0.5c0.2-0.2,0.5-0.5,0.9-1.1l0.3,0.1l-0.1,0.2
		c-0.6,0.8-1,1.4-1.5,1.8c-0.4,0.3-0.8,0.5-1.2,0.5c-0.3,0-0.6-0.1-0.7-0.3c-0.2-0.2-0.2-0.4-0.2-0.6
		C583.7,266.1,583.7,266.1,583.7,266z"/>
	<path d="M595.6,243.2c1.3-1.7,2.9-3,4.7-4l0.3,0.5c-1.7,1.3-2.9,2.6-3.6,3.9c-1.3,2.2-1.9,5.1-1.9,8.8c0,2.7,0.2,4.9,0.7,6.7
		c0.8,3.1,2.4,5.4,4.8,6.9l-0.4,0.5c-1.3-0.6-2.7-1.8-4.2-3.6c-2.5-3-3.7-6.3-3.7-10.1C592.4,249.1,593.5,246,595.6,243.2z"/>
	<path d="M619.9,242c-0.2,0.3-0.6,0.4-1,0.4c-0.4,0-0.7-0.1-0.9-0.3s-0.3-0.5-0.3-0.8c0-0.2,0.1-0.6,0.3-1.1c0-0.1-0.1-0.3-0.2-0.4
		c-0.1-0.1-0.3-0.1-0.4-0.1c-0.8,0-1.4,0.8-2,2.5c-0.3,1-0.6,2.6-1,4.9h3.5l-0.2,1.1h-3.6l-3,10.2c-0.6,2.7-1.5,4.9-2.5,6.6
		c-1.1,1.7-2.4,2.5-4.1,2.5c-0.8,0-1.4-0.2-1.9-0.6s-0.7-0.9-0.7-1.4c0-0.3,0.1-0.6,0.3-0.9c0.2-0.3,0.5-0.4,0.9-0.4
		c0.4,0,0.7,0.1,0.9,0.3c0.2,0.2,0.4,0.5,0.4,0.9c0,0.2-0.1,0.4-0.2,0.6s-0.2,0.3-0.2,0.4c0,0.1,0.1,0.2,0.2,0.2
		c0.1,0.1,0.3,0.1,0.5,0.1c0.9,0,1.6-0.7,2.3-2.1c0.3-0.7,0.6-1.7,0.9-3l3.7-13.4h-2.9l0.2-1.1h3c0.6-2.4,1.2-4.2,1.9-5.4
		c1.1-1.8,2.4-2.7,3.9-2.7c0.7,0,1.3,0.2,1.8,0.6s0.7,0.9,0.7,1.4C620.2,241.4,620.1,241.7,619.9,242z"/>
	<path d="M627.9,257.3c-0.4,1.4-1,2.7-1.8,3.9c-0.8,1.3-1.9,2.5-3.3,3.7c-0.9,0.8-1.7,1.3-2.3,1.6l-0.3-0.5c1.6-1.2,2.8-2.5,3.5-3.7
		c1.3-2.2,2-5.2,2-8.9c0-3-0.3-5.4-0.9-7.3c-0.8-2.7-2.4-4.8-4.6-6.3l0.4-0.5c1.6,0.9,3.2,2.3,4.6,4.2c2.2,2.9,3.3,6.1,3.3,9.6
		C628.5,254.5,628.3,255.9,627.9,257.3z"/>
</g>
<g>
	<path d="M560.2,67.5c0.8-0.1,1.3-0.2,1.5-0.4c0.4-0.3,0.8-1,1.1-1.9l3.9-14.2c0.1-0.6,0.2-1,0.3-1.2c0.1-0.2,0.1-0.5,0.1-0.7
		c0-0.5-0.2-0.9-0.5-1.1s-1-0.3-1.9-0.3v-0.5h8.7v0.5c-0.9,0.1-1.5,0.2-1.9,0.4c-0.6,0.4-1.1,1-1.4,1.9l-1.7,6.2h9.9l1.6-5.7
		c0.1-0.4,0.2-0.7,0.2-1s0-0.4,0-0.6c0-0.5-0.3-0.9-0.8-1.1c-0.3-0.1-0.8-0.2-1.5-0.2v-0.5h7.9v0.5c-0.8,0.1-1.4,0.3-1.7,0.5
		c-0.3,0.2-0.6,0.8-0.9,1.8l-3.9,14.2l-0.3,1.2c0,0.1,0,0.2-0.1,0.3s0,0.2,0,0.3c0,0.6,0.2,1,0.5,1.2s1,0.3,1.9,0.3V68h-8.7v-0.5
		c0.8-0.1,1.5-0.2,1.8-0.4c0.6-0.4,1.1-1,1.4-1.9l2.1-7.6H568l-1.8,6.6l-0.3,1.2c0,0.1,0,0.2-0.1,0.3s0,0.2,0,0.3
		c0,0.6,0.2,1,0.5,1.1s0.9,0.3,1.8,0.3V68h-7.9V67.5z"/>
	<path d="M583.7,73.2c0-0.1,0-0.1,0-0.2l1.9-6.8h-1.5c0-0.2,0-0.3,0-0.3c0,0,0.1-0.1,0.2-0.1c0.7-0.3,1.2-0.6,1.5-0.8
		c0.4-0.3,0.9-0.8,1.5-1.5l0.2-0.2c0,0,0,0,0.1-0.1c0,0,0.1,0,0.1,0c0.1,0,0.1,0,0.1,0c0,0,0,0.1,0,0.1c0,0,0,0.1,0,0.1l-0.6,2.1
		h1.6l-0.1,0.7h-1.7l-1.8,6.6c0,0.1,0,0.2,0,0.3c0.1,0.1,0.1,0.2,0.3,0.2c0.2,0,0.4-0.2,0.7-0.5c0.2-0.2,0.5-0.5,0.9-1.1l0.3,0.1
		l-0.1,0.2c-0.6,0.8-1,1.4-1.5,1.8c-0.4,0.3-0.8,0.5-1.2,0.5c-0.3,0-0.6-0.1-0.7-0.3c-0.2-0.2-0.2-0.4-0.2-0.6
		C583.7,73.4,583.7,73.3,583.7,73.2z"/>
	<path d="M595.6,50.5c1.3-1.7,2.9-3,4.7-4l0.3,0.5c-1.7,1.3-2.9,2.6-3.6,3.9c-1.3,2.2-1.9,5.1-1.9,8.8c0,2.7,0.2,4.9,0.7,6.7
		c0.8,3.1,2.4,5.4,4.8,6.9l-0.4,0.5c-1.3-0.6-2.7-1.8-4.2-3.6c-2.5-3-3.7-6.3-3.7-10.1C592.4,56.4,593.5,53.2,595.6,50.5z"/>
	<path d="M619.9,49.3c-0.2,0.3-0.6,0.4-1,0.4c-0.4,0-0.7-0.1-0.9-0.3c-0.2-0.2-0.3-0.5-0.3-0.8c0-0.2,0.1-0.6,0.3-1.1
		c0-0.1-0.1-0.3-0.2-0.4c-0.1-0.1-0.3-0.1-0.4-0.1c-0.8,0-1.4,0.8-2,2.5c-0.3,1-0.6,2.6-1,4.9h3.5l-0.2,1.1h-3.6l-3,10.2
		c-0.6,2.7-1.5,4.9-2.5,6.6c-1.1,1.7-2.4,2.5-4.1,2.5c-0.8,0-1.4-0.2-1.9-0.6s-0.7-0.9-0.7-1.4c0-0.3,0.1-0.6,0.3-0.9
		c0.2-0.3,0.5-0.4,0.9-0.4c0.4,0,0.7,0.1,0.9,0.3c0.2,0.2,0.4,0.5,0.4,0.9c0,0.2-0.1,0.4-0.2,0.6c-0.1,0.2-0.2,0.3-0.2,0.4
		c0,0.1,0.1,0.2,0.2,0.2c0.1,0.1,0.3,0.1,0.5,0.1c0.9,0,1.6-0.7,2.3-2.1c0.3-0.7,0.6-1.7,0.9-3l3.7-13.4h-2.9l0.2-1.1h3
		c0.6-2.4,1.2-4.2,1.9-5.4c1.1-1.8,2.4-2.7,3.9-2.7c0.7,0,1.3,0.2,1.8,0.6s0.7,0.9,0.7,1.4C620.2,48.6,620.1,49,619.9,49.3z"/>
	<path d="M627.9,64.6c-0.4,1.4-1,2.7-1.8,3.9c-0.8,1.3-1.9,2.5-3.3,3.7c-0.9,0.8-1.7,1.3-2.3,1.6l-0.3-0.5c1.6-1.2,2.8-2.5,3.5-3.7
		c1.3-2.3,2-5.2,2-8.9c0-3-0.3-5.4-0.9-7.3c-0.8-2.7-2.4-4.8-4.6-6.3l0.4-0.5c1.6,0.9,3.2,2.3,4.6,4.2c2.2,2.9,3.3,6.1,3.3,9.6
		C628.5,61.7,628.3,63.2,627.9,64.6z"/>
</g>
<rect x="141.7" y="119.1" style="&st0;" width="170.1" height="79.4"/>
<g>
	<path d="M198.1,152.6c1.1-0.1,1.8-0.3,2.2-0.6c0.4-0.4,0.5-1.1,0.5-2.3v-9.9h-2.7v-1.1h2.7c0-1.7,0.2-3,0.7-4.2
		c0.9-2.2,2.4-3.3,4.7-3.3c0.9,0,1.7,0.2,2.5,0.5s1.1,0.9,1.1,1.5c0,0.3-0.1,0.7-0.4,0.9c-0.2,0.3-0.6,0.4-0.9,0.4
		c-0.3,0-0.6-0.1-0.8-0.3s-0.5-0.5-0.8-1l-0.3-0.4c-0.1-0.2-0.3-0.4-0.5-0.6c-0.2-0.2-0.5-0.2-0.8-0.2c-0.8,0-1.3,0.4-1.6,1.2
		c-0.2,0.4-0.2,1-0.2,1.7v3.7h3.9v1.1h-3.9v9.9c0,1.2,0.2,1.9,0.5,2.3c0.3,0.3,1.1,0.5,2.5,0.6v0.4h-8.4V152.6z"/>
	<path d="M208.8,152.6c1-0.1,1.6-0.3,2-0.6s0.5-0.9,0.5-1.8V135c0-0.7-0.1-1.2-0.2-1.4c-0.2-0.4-0.6-0.7-1.3-0.7c-0.1,0-0.3,0-0.5,0
		s-0.4,0.1-0.6,0.1v-0.5c1.4-0.4,3.1-0.9,5.1-1.5c0.1,0,0.1,0,0.1,0.1s0,0.2,0,0.4v18.7c0,0.9,0.2,1.5,0.5,1.8s1,0.4,1.9,0.5v0.4
		h-7.6V152.6z"/>
	<path d="M219.8,140.6c1.3-1.4,3-2.2,5.1-2.2c2.1,0,3.8,0.7,5.1,2c1.4,1.4,2,3.2,2,5.4c0,2.1-0.7,3.9-2,5.4c-1.3,1.5-3,2.3-5.1,2.3
		c-2,0-3.7-0.7-5.1-2.2c-1.4-1.5-2.1-3.3-2.1-5.5C217.8,143.8,218.5,142,219.8,140.6z M222.3,140.2c-1,0.9-1.6,2.6-1.6,4.9
		c0,1.9,0.4,3.6,1.3,5.2c0.8,1.6,2,2.4,3.5,2.4c1.2,0,2.1-0.5,2.7-1.6s0.9-2.5,0.9-4.2c0-1.8-0.4-3.5-1.2-5.1s-2-2.4-3.5-2.4
		C223.6,139.4,222.9,139.6,222.3,140.2z"/>
	<path d="M247.9,139c-0.6,0.1-1.1,0.2-1.4,0.3c-0.3,0.1-0.5,0.4-0.5,0.8c0,0.2,0,0.5,0.1,0.7c0.1,0.2,0.2,0.5,0.3,0.8l2.8,7.4
		l2.8-6.8c0.1-0.3,0.3-0.7,0.4-1.1c0.1-0.5,0.2-0.8,0.2-1.1c0-0.4-0.1-0.6-0.4-0.8c-0.2-0.1-0.6-0.2-1-0.3v-0.4h4v0.4
		c-0.3,0.1-0.5,0.2-0.6,0.4c-0.2,0.2-0.4,0.7-0.7,1.4l-5,12.3c0,0.1-0.1,0.2-0.1,0.2s-0.1,0.1-0.1,0.1c-0.1-0.1-0.2-0.1-0.2-0.2
		l-3.8-9.5l-3.8,9.5c0,0.1,0,0.1-0.1,0.1c0,0-0.1,0.1-0.1,0.1c-0.1-0.1-0.2-0.1-0.2-0.2l-4.7-11.5c-0.5-1.3-0.8-2-1-2.3
		c-0.2-0.2-0.5-0.4-1-0.5v-0.4h5.8v0.4c-0.5,0-0.8,0.1-1.1,0.3c-0.3,0.1-0.4,0.4-0.4,0.8c0,0.3,0.2,1.1,0.6,2.2
		c0.3,0.7,0.6,1.5,1,2.4l1.8,4.4l2.8-5.9l0-0.2c0-0.2-0.1-0.6-0.3-1.2c-0.2-0.6-0.4-1.1-0.6-1.5c-0.2-0.5-0.4-0.8-0.7-1
		c-0.3-0.2-0.6-0.3-1.1-0.3v-0.4h6.5V139z"/>
	<path d="M184,180.1h0.5c0.2,1.2,0.6,2.1,1,2.7c0.7,1.2,1.8,1.8,3.2,1.8c0.8,0,1.4-0.2,1.8-0.6s0.7-1,0.7-1.7c0-0.4-0.1-0.9-0.4-1.3
		c-0.3-0.4-0.7-0.8-1.4-1.2l-1.7-1c-1.3-0.7-2.2-1.4-2.8-2.1c-0.6-0.7-0.9-1.5-0.9-2.5c0-1.2,0.4-2.1,1.3-2.9s1.9-1.1,3.1-1.1
		c0.6,0,1.2,0.1,1.8,0.3c0.7,0.2,1,0.3,1.1,0.3c0.2,0,0.3,0,0.4-0.1c0.1,0,0.2-0.1,0.2-0.2h0.4l0.1,4.4h-0.5c-0.2-1-0.5-1.8-0.8-2.4
		c-0.6-1-1.6-1.6-2.8-1.6c-0.7,0-1.3,0.2-1.7,0.7c-0.4,0.4-0.6,1-0.6,1.6c0,1,0.7,1.8,2.2,2.6l2.1,1.1c2.2,1.2,3.3,2.6,3.3,4.2
		c0,1.2-0.5,2.2-1.4,3s-2.1,1.2-3.6,1.2c-0.6,0-1.3-0.1-2.1-0.3c-0.8-0.2-1.3-0.3-1.4-0.3c-0.1,0-0.2,0-0.3,0.1s-0.2,0.2-0.2,0.3
		H184V180.1z"/>
	<path d="M194.9,191.5c1-0.1,1.6-0.3,1.9-0.6s0.4-0.9,0.4-1.7v-15c0-0.8-0.1-1.3-0.3-1.5c-0.2-0.2-0.6-0.3-1.1-0.3
		c-0.1,0-0.2,0-0.3,0c-0.1,0-0.2,0-0.4,0.1v-0.5l1.5-0.5c0.1,0,1.1-0.4,3.1-1.1c0.1,0,0.1,0,0.1,0.1c0,0,0,0.1,0,0.2v2.1
		c0.7-0.7,1.3-1.2,1.8-1.5c0.9-0.6,1.9-0.9,2.9-0.9c1.4,0,2.7,0.6,3.7,1.8c1,1.2,1.6,2.9,1.6,5c0,2.1-0.6,4-1.9,5.7
		c-1.2,1.7-2.8,2.5-4.7,2.5c-0.6,0-1.1-0.1-1.5-0.2c-0.7-0.2-1.3-0.6-1.8-1.2v5.2c0,1,0.2,1.7,0.5,1.9s1.1,0.4,2.3,0.5v0.6h-7.7
		V191.5z M201.1,183.7c0.5,0.3,1.2,0.5,1.9,0.5c1.1,0,2.1-0.6,2.9-1.7s1.2-2.7,1.2-4.7c0-1.9-0.4-3.3-1.2-4.3
		c-0.8-0.9-1.8-1.4-2.9-1.4c-0.8,0-1.5,0.2-2.1,0.7c-0.6,0.5-1,0.9-1,1.4v7.8C200.1,182.9,200.6,183.4,201.1,183.7z"/>
	<path d="M211.4,184.6c1-0.1,1.6-0.3,2-0.6s0.5-0.9,0.5-1.8V167c0-0.7-0.1-1.2-0.2-1.4c-0.2-0.4-0.6-0.7-1.3-0.7c-0.1,0-0.3,0-0.5,0
		s-0.4,0.1-0.6,0.1v-0.5c1.4-0.4,3.1-0.9,5.1-1.5c0.1,0,0.1,0,0.1,0.1s0,0.2,0,0.4v18.7c0,0.9,0.2,1.5,0.5,1.8s1,0.4,1.9,0.5v0.4
		h-7.6V184.6z"/>
	<path d="M220.3,184.6c1.1-0.1,1.8-0.3,2.1-0.6c0.3-0.3,0.4-1,0.4-2.2v-7.5c0-0.7,0-1.1-0.1-1.4c-0.2-0.4-0.5-0.6-1-0.6
		c-0.1,0-0.2,0-0.3,0c-0.1,0-0.4,0.1-0.9,0.2v-0.5l0.7-0.2c1.8-0.6,3.1-1,3.8-1.3c0.3-0.1,0.5-0.2,0.6-0.2c0,0.1,0,0.2,0,0.2v11.2
		c0,1.2,0.1,1.9,0.4,2.2c0.3,0.3,0.9,0.5,1.9,0.6v0.4h-7.6V184.6z M222.8,163.7c0.3-0.3,0.7-0.5,1.2-0.5c0.4,0,0.8,0.2,1.1,0.5
		c0.3,0.3,0.5,0.7,0.5,1.2c0,0.4-0.2,0.8-0.5,1.1c-0.3,0.3-0.7,0.5-1.1,0.5c-0.5,0-0.8-0.2-1.2-0.5s-0.5-0.7-0.5-1.1
		C222.4,164.4,222.5,164.1,222.8,163.7z"/>
	<path d="M236.7,170.7v1.1h-3.2l0,8.9c0,0.8,0.1,1.4,0.2,1.8c0.3,0.7,0.7,1.1,1.5,1.1c0.4,0,0.7-0.1,1-0.3c0.3-0.2,0.6-0.5,1-0.8
		l0.4,0.3l-0.3,0.5c-0.5,0.7-1.1,1.3-1.7,1.6c-0.6,0.3-1.2,0.5-1.8,0.5c-1.2,0-2.1-0.5-2.5-1.6c-0.2-0.6-0.4-1.4-0.4-2.5v-9.4h-1.7
		c-0.1,0-0.1-0.1-0.1-0.1s0-0.1,0-0.1c0-0.1,0-0.2,0.1-0.2c0-0.1,0.2-0.2,0.4-0.4c0.7-0.6,1.2-1.1,1.6-1.5c0.3-0.4,1.1-1.4,2.2-2.9
		c0.1,0,0.2,0,0.2,0c0,0,0,0.1,0,0.2v3.9H236.7z"/>
	<path d="M245.6,170.7v1.1h-3.2l0,8.9c0,0.8,0.1,1.4,0.2,1.8c0.3,0.7,0.7,1.1,1.5,1.1c0.4,0,0.7-0.1,1-0.3c0.3-0.2,0.6-0.5,1-0.8
		l0.4,0.3l-0.3,0.5c-0.5,0.7-1.1,1.3-1.7,1.6c-0.6,0.3-1.2,0.5-1.8,0.5c-1.2,0-2.1-0.5-2.5-1.6c-0.2-0.6-0.4-1.4-0.4-2.5v-9.4H238
		c-0.1,0-0.1-0.1-0.1-0.1s0-0.1,0-0.1c0-0.1,0-0.2,0.1-0.2c0-0.1,0.2-0.2,0.4-0.4c0.7-0.6,1.2-1.1,1.6-1.5c0.3-0.4,1.1-1.4,2.2-2.9
		c0.1,0,0.2,0,0.2,0c0,0,0,0.1,0,0.2v3.9H245.6z"/>
	<path d="M257.5,171.9c1.1,1,1.7,2.5,1.7,4.3h-9.9c0.1,2.4,0.6,4.2,1.6,5.3s2.2,1.6,3.5,1.6c1.1,0,2-0.3,2.8-0.9
		c0.7-0.6,1.4-1.4,2.1-2.4l0.5,0.2c-0.4,1.3-1.2,2.6-2.4,3.7c-1.2,1.1-2.6,1.7-4.3,1.7c-2,0-3.5-0.7-4.5-2.2
		c-1.1-1.5-1.6-3.2-1.6-5.1c0-2.1,0.6-3.9,1.9-5.4c1.2-1.5,2.9-2.3,4.8-2.3C255.1,170.4,256.4,170.9,257.5,171.9z M250.1,173.1
		c-0.3,0.6-0.6,1.3-0.7,2.1h6.5c-0.1-1-0.3-1.8-0.6-2.3c-0.5-0.9-1.4-1.4-2.5-1.4C251.6,171.6,250.7,172.1,250.1,173.1z"/>
	<path d="M260.7,184.5c1-0.1,1.6-0.2,1.9-0.5s0.5-0.8,0.5-1.6v-7.1c0-1-0.1-1.8-0.3-2.2c-0.2-0.4-0.5-0.7-1.1-0.7
		c-0.1,0-0.2,0-0.4,0c-0.2,0-0.4,0.1-0.5,0.1v-0.5c0.6-0.2,1.2-0.4,1.8-0.6s1.1-0.4,1.3-0.5c0.5-0.2,1.1-0.4,1.6-0.7
		c0.1,0,0.1,0,0.1,0.1s0,0.2,0,0.4v2.6c0.7-0.9,1.3-1.7,1.9-2.2c0.6-0.5,1.3-0.8,1.9-0.8c0.5,0,1,0.2,1.3,0.5
		c0.3,0.3,0.5,0.7,0.5,1.2c0,0.4-0.1,0.8-0.4,1.1c-0.3,0.3-0.6,0.4-1,0.4c-0.4,0-0.8-0.2-1.2-0.5c-0.4-0.4-0.7-0.5-0.9-0.5
		c-0.4,0-0.8,0.3-1.3,0.9c-0.5,0.6-0.8,1.2-0.8,1.8v7c0,0.9,0.2,1.5,0.6,1.9c0.4,0.3,1.1,0.5,2.1,0.5v0.5h-7.7V184.5z"/>
</g>
<circle style="&st0;" cx="861.7" cy="158.7" r="22.7"/>
<g>
	<g>
		<line style="&st2;" x1="85" y1="158.7" x2="130.4" y2="158.7"/>
		<polygon points="141,158.7 126.1,164.8 129.6,158.7 126.1,152.6 		"/>
	</g>
</g>
<circle style="&st0;" cx="56.7" cy="158.7" r="28.3"/>
<line style="&st2;" x1="861.7" y1="142.7" x2="861.7" y2="174.8"/>
<line style="&st2;" x1="845.7" y1="158.7" x2="877.8" y2="158.7"/>
<g>
	<path d="M50.3,163.5l0.6,0.1c0,0.4,0,0.6,0,0.6c0,1.6,0.4,2.9,1.3,3.9c0.9,1,2,1.5,3.3,1.5c1.3,0,2.3-0.4,3-1.3
		c0.7-0.9,1.1-1.8,1.1-2.9c0-0.4-0.1-0.8-0.2-1.3c-0.2-0.7-0.6-1.3-1-1.8l-2-2.2c-1.5-1.7-2.5-2.9-3-3.6c-0.4-0.7-0.7-1.5-0.7-2.4
		c0-1.3,0.5-2.5,1.5-3.6c1-1.1,2.4-1.7,4.3-1.7c0.8,0,1.7,0.1,2.6,0.4s1.4,0.4,1.6,0.4c0.3,0,0.6-0.1,0.8-0.3
		c0.2-0.2,0.4-0.4,0.5-0.6h0.7l-1.3,6.4l-0.6-0.1c-0.1-1.5-0.2-2.6-0.6-3.3c-0.6-1.2-1.7-1.9-3.4-1.9c-1,0-1.9,0.3-2.5,0.9
		s-1,1.3-1,2.2c0,0.7,0.1,1.3,0.4,1.8c0.3,0.5,0.8,1.2,1.7,2.1l2.9,3.1c0.5,0.6,1,1.2,1.3,1.9c0.4,0.7,0.5,1.5,0.5,2.5
		c0,1.7-0.6,3.2-1.7,4.4c-1.2,1.3-2.7,1.9-4.6,1.9c-1,0-2-0.2-3.1-0.6c-1-0.4-1.7-0.6-1.9-0.6c-0.4,0-0.6,0.1-0.8,0.3
		s-0.3,0.4-0.5,0.8h-0.6L50.3,163.5z"/>
</g>
<rect style="&st1;" width="975.1" height="317.5"/>
</svg>
