<?xml version="1.0" encoding="UTF-8" standalone="no"?>
<!-- Generator: Adobe Illustrator 12.0.1, SVG Export Plug-In . SVG Version: 6.00 Build 51448)  -->
<svg
   xmlns:dc="http://purl.org/dc/elements/1.1/"
   xmlns:cc="http://web.resource.org/cc/"
   xmlns:rdf="http://www.w3.org/1999/02/22-rdf-syntax-ns#"
   xmlns:svg="http://www.w3.org/2000/svg"
   xmlns="http://www.w3.org/2000/svg"
   xmlns:sodipodi="http://sodipodi.sourceforge.net/DTD/sodipodi-0.dtd"
   xmlns:inkscape="http://www.inkscape.org/namespaces/inkscape"
   version="1.1"
   id="Layer_1"
   width="1275.6"
   height="317.5"
   viewBox="0 0 1275.6 317.5"
   style="overflow:visible;enable-background:new 0 0 1275.6 317.5;"
   xml:space="preserve"
   sodipodi:version="0.32"
   inkscape:version="0.45.1"
   sodipodi:docname="QAM_receiver.svg"
   sodipodi:docbase="/home/alejo"
   inkscape:output_extension="org.inkscape.output.svg.inkscape"><metadata
   id="metadata2890"><rdf:RDF><cc:Work
       rdf:about=""><dc:format>image/svg+xml</dc:format><dc:type
         rdf:resource="http://purl.org/dc/dcmitype/StillImage" /></cc:Work></rdf:RDF></metadata><defs
   id="defs2888">
	
	
	
	

	
	
	
	
</defs><sodipodi:namedview
   inkscape:window-height="694"
   inkscape:window-width="1024"
   inkscape:pageshadow="2"
   inkscape:pageopacity="0.0"
   guidetolerance="10.0"
   gridtolerance="10.0"
   objecttolerance="10.0"
   borderopacity="1.0"
   bordercolor="#666666"
   pagecolor="#ffffff"
   id="base"
   showguides="true"
   inkscape:guide-bbox="true"
   inkscape:zoom="1.8093419"
   inkscape:cx="204.07309"
   inkscape:cy="92.427548"
   inkscape:window-x="0"
   inkscape:window-y="49"
   inkscape:current-layer="Layer_1" />
<g
   id="g2545">
	<path
   d="M143.1,133.7c0.9,0.7,1.4,1.4,1.4,2.2c0,0.3-0.1,0.7-0.4,1s-0.6,0.4-1.1,0.4c-0.4,0-0.7-0.1-1-0.4s-0.5-0.6-0.6-1.1   l-0.2-0.8c-0.1-0.6-0.4-0.9-0.7-1.2c-0.3-0.2-0.8-0.3-1.4-0.3c-1.2,0-2.2,0.5-3,1.6s-1.2,2.4-1.2,4.1c0,1.6,0.4,3,1.3,4.2   c0.9,1.2,2.1,1.9,3.6,1.9c1.1,0,2-0.4,2.9-1.1c0.5-0.4,1-1,1.6-1.9l0.4,0.3c-0.6,1.3-1.2,2.2-1.9,3c-1.3,1.4-2.7,2.1-4.4,2.1   c-1.6,0-3.1-0.6-4.3-1.9s-1.9-3-1.9-5.2c0-2.2,0.7-4,2-5.6c1.4-1.6,3.1-2.3,5.2-2.3C141.1,132.7,142.2,133,143.1,133.7z"
   id="path2547" />
	<path
   d="M148.8,134.9c1.3-1.4,3-2.2,5.1-2.2c2.1,0,3.8,0.7,5.1,2c1.4,1.4,2,3.2,2,5.4c0,2.1-0.7,3.9-2,5.4s-3,2.3-5.1,2.3   c-2,0-3.7-0.7-5.1-2.2c-1.4-1.5-2.1-3.3-2.1-5.5C146.8,138.1,147.5,136.3,148.8,134.9z M151.3,134.5c-1,0.9-1.6,2.6-1.6,4.9   c0,1.9,0.4,3.6,1.3,5.2c0.8,1.6,2,2.4,3.5,2.4c1.2,0,2.1-0.5,2.7-1.6c0.6-1.1,0.9-2.5,0.9-4.2c0-1.8-0.4-3.5-1.2-5.1   s-2-2.4-3.5-2.4C152.6,133.7,151.9,134,151.3,134.5z"
   id="path2549" />
	<path
   d="M163.7,142.4h0.5c0.2,1.2,0.6,2.1,1,2.7c0.7,1.2,1.8,1.8,3.2,1.8c0.8,0,1.4-0.2,1.8-0.6s0.7-1,0.7-1.7   c0-0.4-0.1-0.9-0.4-1.3c-0.3-0.4-0.7-0.8-1.4-1.2l-1.7-1c-1.3-0.7-2.2-1.4-2.8-2.1c-0.6-0.7-0.9-1.5-0.9-2.5c0-1.2,0.4-2.1,1.3-2.9   s1.9-1.1,3.1-1.1c0.6,0,1.2,0.1,1.8,0.3c0.7,0.2,1,0.3,1.1,0.3c0.2,0,0.3,0,0.4-0.1s0.2-0.1,0.2-0.2h0.4l0.1,4.4h-0.5   c-0.2-1-0.5-1.8-0.8-2.4c-0.6-1-1.6-1.6-2.8-1.6c-0.7,0-1.3,0.2-1.7,0.7c-0.4,0.4-0.6,1-0.6,1.6c0,1,0.7,1.8,2.2,2.6l2.1,1.1   c2.2,1.2,3.3,2.6,3.3,4.2c0,1.2-0.5,2.2-1.4,3s-2.1,1.2-3.6,1.2c-0.6,0-1.3-0.1-2.1-0.3s-1.3-0.3-1.4-0.3c-0.1,0-0.2,0-0.3,0.1   c-0.1,0.1-0.2,0.2-0.2,0.3h-0.4V142.4z"
   id="path2551" />
	<path
   d="M183.4,147c3.8-4,6.4-6.9,7.7-8.7c1.4-1.9,2-3.7,2-5.4c0-1.5-0.4-2.7-1.2-3.5c-0.8-0.8-1.8-1.2-3-1.2   c-1.4,0-2.6,0.5-3.5,1.6c-0.5,0.6-1,1.5-1.4,2.6l-0.7-0.1c0.5-2.4,1.4-4.1,2.6-5s2.6-1.4,4-1.4c1.8,0,3.2,0.6,4.3,1.7   s1.6,2.5,1.6,4.1c0,1.7-0.6,3.4-1.8,4.9c-1.2,1.6-3.7,4.4-7.6,8.5h7.1c1,0,1.7-0.1,2.1-0.4c0.4-0.2,0.9-0.8,1.4-1.7l0.4,0.2   l-1.7,4.4h-12.5V147z"
   id="path2553" />
	<path
   d="M204.1,136.7c0,4.3-0.3,7.2-0.8,8.8c-0.3,0.8-0.6,1.4-1,1.8c-0.4,0.3-0.9,0.5-1.5,0.5c-0.6,0-1.1-0.1-1.4-0.4   c-0.3-0.3-0.6-0.6-0.7-1c-0.1-0.4-0.2-0.9-0.2-1.4c0-0.5,0-1-0.1-1.5h0.8c0,0.4,0.1,0.8,0.3,1.2c0.2,0.4,0.6,0.7,1,0.7   c1,0,1.7-0.9,2.2-2.7c0.4-1.7,0.6-4,0.6-6.9v-1h-1.7c-0.6,0-1.1,0.2-1.4,0.5c-0.3,0.3-0.6,0.7-0.7,1.2h-0.8   c0.1-0.7,0.3-1.3,0.5-1.9c0.2-0.5,0.5-0.9,0.8-1.3c0.4-0.3,0.9-0.6,1.5-0.7c0.6-0.1,1.5-0.2,2.5-0.2c3.8,0.1,7.1,0.1,9.9,0.2   c0.5,0,0.8-0.1,1-0.3c0.2-0.2,0.2-0.4,0.3-0.6h0.6c0,1.2-0.3,2-0.7,2.5c-0.4,0.4-1,0.6-1.9,0.6h-1.6v9.4c0,1.5,0.4,2.3,1.4,2.3   c0.4,0,0.7-0.2,0.9-0.5c0.2-0.3,0.4-0.6,0.5-1c0.2-0.9,0.3-1.7,0.3-2.6h0.8c0,0.5,0,1.1-0.1,1.7c-0.1,0.6-0.2,1.1-0.5,1.7   c-0.2,0.5-0.6,0.9-1,1.3c-0.5,0.4-1.1,0.5-1.9,0.6c-0.6,0-1.2-0.1-1.6-0.3c-0.4-0.2-0.8-0.5-1-0.9c-0.5-0.8-0.7-1.6-0.7-2.6v-9.1   h-4.5V136.7z"
   id="path2555" />
	<path
   d="M229.2,128.6c-0.2,0.3-0.6,0.4-1,0.4c-0.4,0-0.7-0.1-0.9-0.3c-0.2-0.2-0.3-0.5-0.3-0.8c0-0.2,0.1-0.6,0.3-1.1   c0-0.1-0.1-0.3-0.2-0.4c-0.1-0.1-0.3-0.1-0.4-0.1c-0.8,0-1.4,0.8-2,2.5c-0.3,1-0.6,2.6-1,4.9h3.5l-0.2,1.1h-3.6l-3,10.2   c-0.6,2.7-1.5,4.9-2.5,6.6c-1.1,1.7-2.4,2.5-4.1,2.5c-0.8,0-1.4-0.2-1.9-0.6c-0.5-0.4-0.7-0.9-0.7-1.4c0-0.3,0.1-0.6,0.3-0.9   c0.2-0.3,0.5-0.4,0.9-0.4c0.4,0,0.7,0.1,0.9,0.3c0.2,0.2,0.4,0.5,0.4,0.9c0,0.2-0.1,0.4-0.2,0.6c-0.1,0.2-0.2,0.3-0.2,0.4   c0,0.1,0.1,0.2,0.2,0.2c0.1,0.1,0.3,0.1,0.5,0.1c0.9,0,1.6-0.7,2.3-2.1c0.3-0.7,0.6-1.7,0.9-3l3.7-13.4H218l0.2-1.1h3   c0.6-2.4,1.2-4.2,1.9-5.4c1.1-1.8,2.4-2.7,3.9-2.7c0.7,0,1.3,0.2,1.8,0.6s0.7,0.9,0.7,1.4C229.6,128,229.4,128.3,229.2,128.6z"
   id="path2557" />
	<path
   d="M233.1,142.3c0.7,1.3,1,2.7,1,4.4c0,1.3-0.2,2.5-0.6,3.7c-0.8,2.2-2.1,3.2-4,3.2c-1.3,0-2.3-0.6-3.2-1.7   c-0.9-1.2-1.3-2.9-1.3-5.1c0-1.7,0.3-3.1,0.9-4.3c0.8-1.6,2-2.5,3.7-2.5C231.1,140,232.3,140.8,233.1,142.3z M231.6,151.5   c0.4-1,0.5-2.6,0.5-4.5c0-1.6-0.1-2.8-0.3-3.8c-0.4-1.8-1.2-2.6-2.3-2.6c-1.1,0-1.9,0.9-2.3,2.7c-0.2,1-0.3,2.2-0.3,3.8   c0,1.5,0.1,2.7,0.3,3.5c0.4,1.7,1.2,2.5,2.3,2.5C230.6,153,231.3,152.5,231.6,151.5z"
   id="path2559" />
	<path
   d="M236.1,146.1c0-0.1,0-0.2,0.1-0.3l3-10.9h-2.4c0-0.3,0-0.5,0.1-0.5c0-0.1,0.1-0.1,0.3-0.2c1.1-0.5,1.9-0.9,2.5-1.3   c0.6-0.4,1.4-1.2,2.4-2.4l0.2-0.3c0,0,0.1-0.1,0.1-0.1c0,0,0.1,0,0.1,0c0.1,0,0.2,0,0.2,0.1c0,0.1,0,0.1,0.1,0.2c0,0.1,0,0.1,0,0.2   l-0.9,3.4h2.6l-0.2,1.1h-2.7l-2.9,10.5c-0.1,0.2,0,0.4,0,0.5s0.2,0.3,0.4,0.3c0.3,0,0.7-0.3,1.1-0.8c0.3-0.3,0.8-0.9,1.4-1.7   l0.4,0.2l-0.2,0.3c-0.9,1.3-1.7,2.3-2.4,2.8c-0.7,0.5-1.3,0.8-1.9,0.8c-0.5,0-0.9-0.1-1.2-0.4c-0.2-0.3-0.4-0.6-0.4-1   C236.1,146.3,236.1,146.2,236.1,146.1z"
   id="path2561" />
</g>
<g
   id="g2563">
	<path
   d="M137.2,184.8v1.6H121v-1.6H137.2z"
   id="path2565" />
	<path
   d="M138.8,187.8h0.5c0.2,1.2,0.6,2.1,1,2.7c0.7,1.2,1.8,1.8,3.2,1.8c0.8,0,1.4-0.2,1.8-0.6c0.5-0.4,0.7-1,0.7-1.7   c0-0.4-0.1-0.9-0.4-1.3c-0.3-0.4-0.7-0.8-1.4-1.2l-1.7-1c-1.3-0.7-2.2-1.4-2.8-2.1s-0.9-1.5-0.9-2.5c0-1.2,0.4-2.1,1.3-2.9   s1.9-1.1,3.1-1.1c0.6,0,1.2,0.1,1.8,0.3c0.7,0.2,1,0.3,1.1,0.3c0.2,0,0.3,0,0.4-0.1s0.2-0.1,0.2-0.2h0.4l0.1,4.4h-0.5   c-0.2-1-0.5-1.8-0.8-2.4c-0.6-1-1.6-1.6-2.8-1.6c-0.7,0-1.3,0.2-1.7,0.7s-0.6,1-0.6,1.6c0,1,0.7,1.8,2.2,2.6l2.1,1.1   c2.2,1.2,3.3,2.6,3.3,4.2c0,1.2-0.5,2.2-1.4,3s-2.1,1.2-3.6,1.2c-0.6,0-1.3-0.1-2.1-0.3s-1.3-0.3-1.4-0.3c-0.1,0-0.2,0-0.3,0.1   c-0.1,0.1-0.2,0.2-0.2,0.3h-0.4V187.8z"
   id="path2567" />
	<path
   d="M150.2,192.3c1.1-0.1,1.8-0.3,2.1-0.6s0.4-1,0.4-2.2V182c0-0.7,0-1.1-0.1-1.4c-0.2-0.4-0.5-0.6-1-0.6c-0.1,0-0.2,0-0.3,0   s-0.4,0.1-0.9,0.2v-0.5l0.7-0.2c1.8-0.6,3.1-1,3.8-1.3c0.3-0.1,0.5-0.2,0.6-0.2c0,0.1,0,0.2,0,0.2v11.2c0,1.2,0.1,1.9,0.4,2.2   c0.3,0.3,0.9,0.5,1.9,0.6v0.4h-7.6V192.3z M152.7,171.4c0.3-0.3,0.7-0.5,1.2-0.5c0.4,0,0.8,0.2,1.1,0.5c0.3,0.3,0.5,0.7,0.5,1.2   c0,0.4-0.2,0.8-0.5,1.1c-0.3,0.3-0.7,0.5-1.1,0.5c-0.5,0-0.8-0.2-1.2-0.5s-0.5-0.7-0.5-1.1C152.2,172.1,152.4,171.7,152.7,171.4z"
   id="path2569" />
	<path
   d="M159,192.3c0.7-0.1,1.3-0.3,1.6-0.5c0.3-0.3,0.4-0.9,0.4-1.8v-8c0-0.7-0.1-1.1-0.2-1.4c-0.2-0.4-0.6-0.6-1.2-0.6   c-0.1,0-0.2,0-0.3,0c-0.1,0-0.2,0-0.4,0v-0.6c0.4-0.1,1.4-0.5,3-1l1.5-0.5c0.1,0,0.1,0,0.1,0.1s0,0.1,0,0.2v2.3   c1-0.9,1.7-1.5,2.2-1.9c0.8-0.5,1.6-0.8,2.5-0.8c0.7,0,1.3,0.2,1.9,0.6c1.1,0.8,1.7,2.2,1.7,4.2v7.3c0,0.8,0.2,1.3,0.5,1.6   c0.3,0.3,0.8,0.5,1.5,0.5v0.4h-6.7v-0.4c0.8-0.1,1.3-0.3,1.6-0.6c0.3-0.3,0.5-1,0.5-2.1v-6.7c0-0.9-0.2-1.6-0.5-2.2   c-0.3-0.6-0.9-0.9-1.8-0.9c-0.6,0-1.2,0.2-1.9,0.6c-0.4,0.2-0.8,0.6-1.4,1.2v8.8c0,0.8,0.2,1.3,0.5,1.5c0.3,0.3,0.9,0.4,1.6,0.4   v0.4H159V192.3z"
   id="path2571" />
	<path
   d="M183.4,192.4c3.8-4,6.4-6.9,7.7-8.7c1.4-1.9,2-3.7,2-5.4c0-1.5-0.4-2.7-1.2-3.5c-0.8-0.8-1.8-1.2-3-1.2   c-1.4,0-2.6,0.5-3.5,1.6c-0.5,0.6-1,1.5-1.4,2.6l-0.7-0.1c0.5-2.4,1.4-4.1,2.6-5s2.6-1.4,4-1.4c1.8,0,3.2,0.6,4.3,1.7   s1.6,2.5,1.6,4.1c0,1.7-0.6,3.4-1.8,4.9s-3.7,4.4-7.6,8.5h7.1c1,0,1.7-0.1,2.1-0.4c0.4-0.2,0.9-0.8,1.4-1.7l0.4,0.2l-1.7,4.4h-12.5   V192.4z"
   id="path2573" />
	<path
   d="M204.1,182c0,4.3-0.3,7.2-0.8,8.8c-0.3,0.8-0.6,1.4-1,1.8c-0.4,0.3-0.9,0.5-1.5,0.5c-0.6,0-1.1-0.1-1.4-0.4   c-0.3-0.3-0.6-0.6-0.7-1c-0.1-0.4-0.2-0.9-0.2-1.4c0-0.5,0-1-0.1-1.5h0.8c0,0.4,0.1,0.8,0.3,1.2c0.2,0.4,0.6,0.7,1,0.7   c1,0,1.7-0.9,2.2-2.7c0.4-1.7,0.6-4,0.6-6.9v-1h-1.7c-0.6,0-1.1,0.2-1.4,0.5c-0.3,0.3-0.6,0.7-0.7,1.2h-0.8   c0.1-0.7,0.3-1.3,0.5-1.9c0.2-0.5,0.5-0.9,0.8-1.3c0.4-0.3,0.9-0.6,1.5-0.7c0.6-0.1,1.5-0.2,2.5-0.2c3.8,0.1,7.1,0.1,9.9,0.2   c0.5,0,0.8-0.1,1-0.3c0.2-0.2,0.2-0.4,0.3-0.6h0.6c0,1.2-0.3,2-0.7,2.5c-0.4,0.4-1,0.6-1.9,0.6h-1.6v9.4c0,1.5,0.4,2.3,1.4,2.3   c0.4,0,0.7-0.2,0.9-0.5c0.2-0.3,0.4-0.6,0.5-1c0.2-0.9,0.3-1.7,0.3-2.6h0.8c0,0.5,0,1.1-0.1,1.7c-0.1,0.6-0.2,1.1-0.5,1.7   c-0.2,0.5-0.6,0.9-1,1.3c-0.5,0.4-1.1,0.5-1.9,0.6c-0.6,0-1.2-0.1-1.6-0.3c-0.4-0.2-0.8-0.5-1-0.9c-0.5-0.8-0.7-1.6-0.7-2.6v-9.1   h-4.5V182z"
   id="path2575" />
	<path
   d="M229.2,174c-0.2,0.3-0.6,0.4-1,0.4c-0.4,0-0.7-0.1-0.9-0.3s-0.3-0.5-0.3-0.8c0-0.2,0.1-0.6,0.3-1.1c0-0.1-0.1-0.3-0.2-0.4   c-0.1-0.1-0.3-0.1-0.4-0.1c-0.8,0-1.4,0.8-2,2.5c-0.3,1-0.6,2.6-1,4.9h3.5l-0.2,1.1h-3.6l-3,10.2c-0.6,2.7-1.5,4.9-2.5,6.6   c-1.1,1.7-2.4,2.5-4.1,2.5c-0.8,0-1.4-0.2-1.9-0.6c-0.5-0.4-0.7-0.9-0.7-1.4c0-0.3,0.1-0.6,0.3-0.9c0.2-0.3,0.5-0.4,0.9-0.4   c0.4,0,0.7,0.1,0.9,0.3c0.2,0.2,0.4,0.5,0.4,0.9c0,0.2-0.1,0.4-0.2,0.6s-0.2,0.3-0.2,0.4c0,0.1,0.1,0.2,0.2,0.2   c0.1,0.1,0.3,0.1,0.5,0.1c0.9,0,1.6-0.7,2.3-2.1c0.3-0.7,0.6-1.7,0.9-3l3.7-13.4H218l0.2-1.1h3c0.6-2.4,1.2-4.2,1.9-5.4   c1.1-1.8,2.4-2.7,3.9-2.7c0.7,0,1.3,0.2,1.8,0.6s0.7,0.9,0.7,1.4C229.6,173.4,229.4,173.7,229.2,174z"
   id="path2577" />
	<path
   d="M233.1,187.7c0.7,1.3,1,2.7,1,4.4c0,1.3-0.2,2.5-0.6,3.7c-0.8,2.2-2.1,3.2-4,3.2c-1.3,0-2.3-0.6-3.2-1.7   c-0.9-1.2-1.3-2.9-1.3-5.1c0-1.7,0.3-3.1,0.9-4.3c0.8-1.6,2-2.5,3.7-2.5C231.1,185.3,232.3,186.1,233.1,187.7z M231.6,196.8   c0.4-1,0.5-2.6,0.5-4.5c0-1.6-0.1-2.8-0.3-3.8c-0.4-1.8-1.2-2.6-2.3-2.6c-1.1,0-1.9,0.9-2.3,2.7c-0.2,1-0.3,2.2-0.3,3.8   c0,1.5,0.1,2.7,0.3,3.5c0.4,1.7,1.2,2.5,2.3,2.5C230.6,198.4,231.3,197.9,231.6,196.8z"
   id="path2579" />
	<path
   d="M236.1,191.5c0-0.1,0-0.2,0.1-0.3l3-10.9h-2.4c0-0.3,0-0.5,0.1-0.5c0-0.1,0.1-0.1,0.3-0.2c1.1-0.5,1.9-0.9,2.5-1.3   c0.6-0.4,1.4-1.2,2.4-2.4l0.2-0.3c0,0,0.1-0.1,0.1-0.1c0,0,0.1,0,0.1,0c0.1,0,0.2,0,0.2,0.1c0,0.1,0,0.1,0.1,0.2c0,0.1,0,0.1,0,0.2   l-0.9,3.4h2.6l-0.2,1.1h-2.7l-2.9,10.5c-0.1,0.2,0,0.4,0,0.5s0.2,0.3,0.4,0.3c0.3,0,0.7-0.3,1.1-0.8c0.3-0.3,0.8-0.9,1.4-1.7   l0.4,0.2l-0.2,0.3c-0.9,1.3-1.7,2.3-2.4,2.8c-0.7,0.5-1.3,0.8-1.9,0.8c-0.5,0-0.9-0.1-1.2-0.4c-0.2-0.3-0.4-0.6-0.4-1   C236.1,191.7,236.1,191.6,236.1,191.5z"
   id="path2581" />
</g>
<rect
   x="527.2"
   y="22.7"
   style="fill:none;stroke:#000000;stroke-width:3"
   width="170.1"
   height="79.4"
   id="rect2583" />
<circle
   style="fill:none;stroke:#000000;stroke-width:3"
   cx="187.1"
   cy="62.4"
   r="22.7"
   id="circle2585" />
<line
   style="fill:none;stroke:#000000;stroke-width:3;"
   x1="175.7"
   y1="51"
   x2="198.4"
   y2="73.7"
   id="line2587" />
<line
   style="fill:none;stroke:#000000;stroke-width:3;"
   x1="175.7"
   y1="73.7"
   x2="198.4"
   y2="51"
   id="line2589" />
<g
   id="g2591">
	<g
   id="g2593">
		<line
   style="fill:none;stroke:#000000;stroke-width:3;"
   x1="697.3"
   y1="62.4"
   x2="742.7"
   y2="62.4"
   id="line2595" />
		<polygon
   points="753.3,62.4 738.3,68.5 741.9,62.4 738.3,56.3   "
   id="polygon2597" />
	</g>
</g>
<rect
   x="527.2"
   y="215.4"
   style="fill:none;stroke:#000000;stroke-width:3"
   width="170.1"
   height="79.4"
   id="rect2599" />
<circle
   style="fill:none;stroke:#000000;stroke-width:3"
   cx="187.1"
   cy="255.1"
   r="22.7"
   id="circle2601" />
<line
   style="fill:none;stroke:#000000;stroke-width:3;"
   x1="175.7"
   y1="243.8"
   x2="198.4"
   y2="266.5"
   id="line2603" />
<line
   style="fill:none;stroke:#000000;stroke-width:3;"
   x1="175.7"
   y1="266.5"
   x2="198.4"
   y2="243.8"
   id="line2605" />
<g
   id="g2607">
	<g
   id="g2609">
		<line
   style="fill:none;stroke:#000000;stroke-width:3;"
   x1="697.3"
   y1="255.1"
   x2="742.7"
   y2="255.1"
   id="line2611" />
		<polygon
   points="753.3,255.1 738.3,261.2 741.9,255.1 738.3,249   "
   id="polygon2613" />
	</g>
</g>
<g
   id="g2615">
	<g
   id="g2617">
		<line
   style="fill:none;stroke:#000000;stroke-width:3;"
   x1="1196.2"
   y1="158.7"
   x2="1241.6"
   y2="158.7"
   id="line2619" />
		<polygon
   points="1252.2,158.7 1237.2,164.8 1240.8,158.7 1237.2,152.6   "
   id="polygon2621" />
	</g>
</g>
<rect
   x="754"
   y="22.7"
   style="fill:none;stroke:#000000;stroke-width:3"
   width="102"
   height="79.4"
   id="rect2623" />
<g
   id="g2625">
	<g
   id="g2627">
		<line
   style="fill:none;stroke:#000000;stroke-width:3;"
   x1="856.1"
   y1="62.4"
   x2="901.4"
   y2="62.4"
   id="line2629" />
		<polygon
   points="912,62.4 897.1,68.5 900.6,62.4 897.1,56.3   "
   id="polygon2631" />
	</g>
</g>
<rect
   x="754"
   y="215.4"
   style="fill:none;stroke:#000000;stroke-width:3"
   width="102"
   height="79.4"
   id="rect2633" />
<g
   id="g2635">
	<g
   id="g2637">
		<line
   style="fill:none;stroke:#000000;stroke-width:3;"
   x1="856.1"
   y1="255.1"
   x2="901.4"
   y2="255.1"
   id="line2639" />
		<polygon
   points="912,255.1 897.1,261.2 900.6,255.1 897.1,249   "
   id="polygon2641" />
	</g>
</g>
<g
   id="g2643">
	<g
   id="g2645">
		<line
   style="fill:none;stroke:#000000;stroke-width:3;"
   x1="209.8"
   y1="62.4"
   x2="289.1"
   y2="62.4"
   id="line2647" />
		<path
   d="M287.3,62.4l-3.9-6.5l0.2-0.1l10.6,4.2c3.7,0.8,7.4,1.6,11.1,2.4c-3.7,0.8-7.4,1.6-11.1,2.4L283.6,69l-0.2-0.1L287.3,62.4    z"
   id="path2649" />
	</g>
</g>
<g
   id="g2651">
	<g
   id="g2653">
		<line
   style="fill:none;stroke:#000000;stroke-width:3;"
   x1="209.8"
   y1="255.1"
   x2="289.1"
   y2="255.1"
   id="line2655" />
		<path
   d="M287.3,255.1l-3.9-6.5l0.2-0.1l10.6,4.2c3.7,0.8,7.4,1.6,11.1,2.4c-3.7,0.8-7.4,1.6-11.1,2.4l-10.6,4.2l-0.2-0.1    L287.3,255.1z"
   id="path2657" />
	</g>
</g>
<g
   id="g2659">
	<path
   d="M40.7,127.6c0,0.1,0.1,0.1,0.1,0.2c0,0.1,0,0.2,0,0.3l-1.6,6.1l0.3-0.7c0.8-1.5,1.6-2.8,2.6-4c1-1.2,2-1.8,2.9-1.8   c0.5,0,0.9,0.2,1.1,0.5c0.3,0.3,0.4,0.7,0.4,1.1c0,0.5-0.1,0.9-0.4,1.2c-0.3,0.3-0.6,0.5-1.1,0.5c-0.3,0-0.6-0.1-0.7-0.2   c-0.2-0.1-0.3-0.3-0.4-0.4l-0.2-0.3c0-0.1-0.1-0.1-0.1-0.1c-0.1,0-0.1-0.1-0.2-0.1c-0.4,0-1,0.6-1.8,1.7c-0.8,1.1-1.5,2.4-2.1,3.7   c-0.4,0.8-0.8,1.9-1.2,3.2c-0.3,0.8-0.7,2-1.1,3.5h-2.4l2.6-9.4c0.1-0.5,0.3-1,0.4-1.4c0.1-0.4,0.1-0.8,0.1-1   c0-0.3-0.1-0.5-0.2-0.7c-0.2-0.2-0.4-0.2-0.8-0.2c-0.1,0-0.3,0-0.5,0c-0.2,0-0.4,0-0.7,0.1v-0.5l0.6-0.1c0.8-0.2,1.7-0.3,2.7-0.5   s1.5-0.3,1.5-0.3C40.6,127.5,40.7,127.5,40.7,127.6z"
   id="path2661" />
	<path
   d="M51.2,124.2c1.3-1.7,2.9-3,4.7-4l0.3,0.5c-1.7,1.3-2.9,2.6-3.6,3.9c-1.3,2.2-1.9,5.1-1.9,8.8c0,2.7,0.2,4.9,0.7,6.7   c0.8,3.1,2.4,5.4,4.8,6.9l-0.4,0.5c-1.3-0.6-2.7-1.8-4.2-3.6c-2.5-3-3.7-6.3-3.7-10.1C47.9,130.1,49,126.9,51.2,124.2z"
   id="path2663" />
	<path
   d="M58.3,140.4c0-0.1,0-0.2,0.1-0.3l3-10.9H59c0-0.3,0-0.5,0.1-0.5c0-0.1,0.1-0.1,0.3-0.2c1.1-0.5,1.9-0.9,2.5-1.3   c0.6-0.4,1.4-1.2,2.4-2.4l0.2-0.3c0,0,0.1-0.1,0.1-0.1c0,0,0.1,0,0.1,0c0.1,0,0.2,0,0.2,0.1c0,0.1,0,0.1,0.1,0.2c0,0.1,0,0.1,0,0.2   l-0.9,3.4h2.6l-0.2,1.1h-2.7l-2.9,10.5c-0.1,0.2,0,0.4,0,0.5s0.2,0.3,0.4,0.3c0.3,0,0.7-0.3,1.1-0.8c0.3-0.3,0.8-0.9,1.4-1.7   l0.4,0.2l-0.2,0.3c-0.9,1.3-1.7,2.3-2.4,2.8c-0.7,0.5-1.3,0.8-1.9,0.8c-0.5,0-0.9-0.1-1.2-0.4c-0.2-0.3-0.4-0.6-0.4-1   C58.3,140.6,58.3,140.5,58.3,140.4z"
   id="path2665" />
	<path
   d="M74.5,138.3c-0.4,1.4-1,2.7-1.8,3.9c-0.8,1.3-1.9,2.5-3.3,3.7c-0.9,0.8-1.7,1.3-2.3,1.6l-0.3-0.5c1.6-1.2,2.8-2.5,3.5-3.7   c1.3-2.3,2-5.2,2-8.9c0-3-0.3-5.4-0.9-7.3c-0.8-2.7-2.4-4.8-4.6-6.3l0.4-0.5c1.6,0.9,3.2,2.3,4.6,4.2c2.2,2.9,3.3,6.1,3.3,9.6   C75.1,135.4,74.9,136.9,74.5,138.3z"
   id="path2667" />
</g>
<line
   style="fill:none;stroke:#000000;stroke-width:3;"
   x1="28.3"
   y1="158.7"
   x2="102"
   y2="158.7"
   id="line2669" />
<g
   id="g2671">
	<g
   id="g2673">
		<line
   style="fill:none;stroke:#000000;stroke-width:3;"
   x1="187.1"
   y1="119.1"
   x2="187.1"
   y2="96.4"
   id="line2675" />
		<polygon
   points="187.1,85.8 193.2,100.7 187.1,97.2 181,100.7   "
   id="polygon2677" />
	</g>
</g>
<g
   id="g2679">
	<g
   id="g2681">
		<line
   style="fill:none;stroke:#000000;stroke-width:3;"
   x1="187.1"
   y1="198.4"
   x2="187.1"
   y2="221.1"
   id="line2683" />
		<polygon
   points="187.1,231.7 181,216.8 187.1,220.3 193.2,216.8   "
   id="polygon2685" />
	</g>
</g>
<g
   id="g2687">
	<path
   d="M577.3,260.3c0.8-0.1,1.3-0.2,1.5-0.4c0.4-0.3,0.8-1,1.1-1.9l3.9-14.2c0.1-0.6,0.2-1,0.3-1.2c0.1-0.2,0.1-0.5,0.1-0.7   c0-0.5-0.2-0.9-0.5-1.1s-1-0.3-1.9-0.3v-0.5h8.7v0.5c-0.9,0.1-1.5,0.2-1.9,0.4c-0.6,0.4-1.1,1-1.4,1.9l-1.7,6.2h9.9l1.6-5.7   c0.1-0.4,0.2-0.7,0.2-1c0-0.2,0-0.4,0-0.6c0-0.5-0.3-0.9-0.8-1.1c-0.3-0.1-0.8-0.2-1.5-0.2v-0.5h7.9v0.5c-0.8,0.1-1.4,0.3-1.7,0.5   c-0.3,0.2-0.6,0.8-0.9,1.8l-3.9,14.2l-0.3,1.2c0,0.1,0,0.2-0.1,0.3s0,0.2,0,0.3c0,0.6,0.2,1,0.5,1.2c0.4,0.2,1,0.3,1.9,0.3v0.5   h-8.7v-0.5c0.8-0.1,1.5-0.2,1.8-0.4c0.6-0.4,1.1-1,1.4-1.9l2.1-7.6h-9.9l-1.8,6.6l-0.3,1.2c0,0.1,0,0.2-0.1,0.3s0,0.2,0,0.3   c0,0.6,0.2,1,0.5,1.1s0.9,0.3,1.8,0.3v0.5h-7.9V260.3z"
   id="path2689" />
	<path
   d="M604.2,258c0,0,0,0.1,0,0.1c0,0.1,0,0.1,0,0.1l-1,3.8l0.2-0.4c0.5-0.9,1-1.8,1.7-2.5c0.6-0.8,1.2-1.1,1.8-1.1   c0.3,0,0.5,0.1,0.7,0.3c0.2,0.2,0.2,0.4,0.2,0.7c0,0.3-0.1,0.5-0.2,0.7c-0.2,0.2-0.4,0.3-0.7,0.3c-0.2,0-0.4,0-0.5-0.1   c-0.1-0.1-0.2-0.2-0.2-0.3l-0.1-0.2c0,0-0.1-0.1-0.1-0.1s-0.1,0-0.1,0c-0.3,0-0.6,0.4-1.1,1.1c-0.5,0.7-0.9,1.5-1.3,2.3   c-0.2,0.5-0.5,1.2-0.8,2c-0.2,0.5-0.4,1.3-0.7,2.2h-1.5l1.6-5.9c0.1-0.3,0.2-0.6,0.2-0.9c0.1-0.3,0.1-0.5,0.1-0.6   c0-0.2,0-0.3-0.1-0.4s-0.3-0.2-0.5-0.2c-0.1,0-0.2,0-0.3,0s-0.3,0-0.4,0v-0.3l0.4-0.1c0.5-0.1,1.1-0.2,1.7-0.3   c0.6-0.1,0.9-0.2,1-0.2C604.2,257.9,604.2,257.9,604.2,258z"
   id="path2691" />
	<path
   d="M612.6,243.2c1.3-1.7,2.9-3,4.7-4l0.3,0.5c-1.7,1.3-2.9,2.6-3.6,3.9c-1.3,2.2-1.9,5.1-1.9,8.8c0,2.7,0.2,4.9,0.7,6.7   c0.8,3.1,2.4,5.4,4.8,6.9l-0.4,0.5c-1.3-0.6-2.7-1.8-4.2-3.6c-2.5-3-3.7-6.3-3.7-10.1C609.3,249.1,610.4,246,612.6,243.2z"
   id="path2693" />
	<path
   d="M636.8,242c-0.2,0.3-0.5,0.4-1,0.4c-0.4,0-0.7-0.1-0.9-0.3s-0.3-0.5-0.3-0.8c0-0.2,0.1-0.6,0.3-1.1c0-0.1-0.1-0.3-0.2-0.4   c-0.1-0.1-0.3-0.1-0.4-0.1c-0.8,0-1.4,0.8-2,2.5c-0.3,1-0.6,2.6-1,4.9h3.5l-0.2,1.1H631l-3,10.2c-0.6,2.7-1.5,4.9-2.5,6.6   c-1.1,1.7-2.4,2.5-4.1,2.5c-0.8,0-1.4-0.2-1.9-0.6c-0.5-0.4-0.7-0.9-0.7-1.4c0-0.3,0.1-0.6,0.3-0.9c0.2-0.3,0.5-0.4,0.9-0.4   c0.4,0,0.7,0.1,0.9,0.3c0.2,0.2,0.4,0.5,0.4,0.9c0,0.2-0.1,0.4-0.2,0.6s-0.2,0.3-0.2,0.4c0,0.1,0.1,0.2,0.2,0.2   c0.1,0.1,0.3,0.1,0.5,0.1c0.9,0,1.6-0.7,2.3-2.1c0.3-0.7,0.6-1.7,0.9-3l3.7-13.4h-2.9l0.2-1.1h3c0.6-2.4,1.2-4.2,1.9-5.4   c1.1-1.8,2.4-2.7,3.9-2.7c0.7,0,1.3,0.2,1.8,0.6s0.7,0.9,0.7,1.4C637.2,241.4,637.1,241.7,636.8,242z"
   id="path2695" />
	<path
   d="M644.8,257.3c-0.4,1.4-1,2.7-1.8,3.9c-0.8,1.3-1.9,2.5-3.3,3.7c-0.9,0.8-1.7,1.3-2.3,1.6l-0.3-0.5c1.6-1.2,2.8-2.5,3.5-3.7   c1.3-2.2,2-5.2,2-8.9c0-3-0.3-5.4-0.9-7.3c-0.8-2.7-2.4-4.8-4.6-6.3l0.4-0.5c1.6,0.9,3.2,2.3,4.6,4.2c2.2,2.9,3.3,6.1,3.3,9.6   C645.5,254.5,645.3,255.9,644.8,257.3z"
   id="path2697" />
</g>
<g
   id="g2699">
	<path
   d="M577.3,67.5c0.8-0.1,1.3-0.2,1.5-0.4c0.4-0.3,0.8-1,1.1-1.9l3.9-14.2c0.1-0.6,0.2-1,0.3-1.2c0.1-0.2,0.1-0.5,0.1-0.7   c0-0.5-0.2-0.9-0.5-1.1s-1-0.3-1.9-0.3v-0.5h8.7v0.5c-0.9,0.1-1.5,0.2-1.9,0.4c-0.6,0.4-1.1,1-1.4,1.9l-1.7,6.2h9.9l1.6-5.7   c0.1-0.4,0.2-0.7,0.2-1s0-0.4,0-0.6c0-0.5-0.3-0.9-0.8-1.1c-0.3-0.1-0.8-0.2-1.5-0.2v-0.5h7.9v0.5c-0.8,0.1-1.4,0.3-1.7,0.5   c-0.3,0.2-0.6,0.8-0.9,1.8l-3.9,14.2l-0.3,1.2c0,0.1,0,0.2-0.1,0.3s0,0.2,0,0.3c0,0.6,0.2,1,0.5,1.2s1,0.3,1.9,0.3V68h-8.7v-0.5   c0.8-0.1,1.5-0.2,1.8-0.4c0.6-0.4,1.1-1,1.4-1.9l2.1-7.6h-9.9l-1.8,6.6l-0.3,1.2c0,0.1,0,0.2-0.1,0.3s0,0.2,0,0.3   c0,0.6,0.2,1,0.5,1.1s0.9,0.3,1.8,0.3V68h-7.9V67.5z"
   id="path2701" />
	<path
   d="M604.2,65.2c0,0,0,0.1,0,0.1c0,0.1,0,0.1,0,0.1l-1,3.8l0.2-0.4c0.5-0.9,1-1.8,1.7-2.5c0.6-0.8,1.2-1.1,1.8-1.1   c0.3,0,0.5,0.1,0.7,0.3c0.2,0.2,0.2,0.4,0.2,0.7c0,0.3-0.1,0.5-0.2,0.7s-0.4,0.3-0.7,0.3c-0.2,0-0.4,0-0.5-0.1   c-0.1-0.1-0.2-0.2-0.2-0.3l-0.1-0.2c0,0-0.1-0.1-0.1-0.1c0,0-0.1,0-0.1,0c-0.3,0-0.6,0.4-1.1,1.1c-0.5,0.7-0.9,1.5-1.3,2.3   c-0.2,0.5-0.5,1.2-0.8,2c-0.2,0.5-0.4,1.3-0.7,2.2h-1.5l1.6-5.9c0.1-0.3,0.2-0.6,0.2-0.9s0.1-0.5,0.1-0.6c0-0.2,0-0.3-0.1-0.4   c-0.1-0.1-0.3-0.2-0.5-0.2c-0.1,0-0.2,0-0.3,0s-0.3,0-0.4,0v-0.3l0.4-0.1c0.5-0.1,1.1-0.2,1.7-0.3c0.6-0.1,0.9-0.2,1-0.2   C604.2,65.1,604.2,65.2,604.2,65.2z"
   id="path2703" />
	<path
   d="M612.6,50.5c1.3-1.7,2.9-3,4.7-4l0.3,0.5c-1.7,1.3-2.9,2.6-3.6,3.9c-1.3,2.2-1.9,5.1-1.9,8.8c0,2.7,0.2,4.9,0.7,6.7   c0.8,3.1,2.4,5.4,4.8,6.9l-0.4,0.5c-1.3-0.6-2.7-1.8-4.2-3.6c-2.5-3-3.7-6.3-3.7-10.1C609.3,56.4,610.4,53.2,612.6,50.5z"
   id="path2705" />
	<path
   d="M636.8,49.3c-0.2,0.3-0.5,0.4-1,0.4c-0.4,0-0.7-0.1-0.9-0.3c-0.2-0.2-0.3-0.5-0.3-0.8c0-0.2,0.1-0.6,0.3-1.1   c0-0.1-0.1-0.3-0.2-0.4c-0.1-0.1-0.3-0.1-0.4-0.1c-0.8,0-1.4,0.8-2,2.5c-0.3,1-0.6,2.6-1,4.9h3.5l-0.2,1.1H631l-3,10.2   c-0.6,2.7-1.5,4.9-2.5,6.6c-1.1,1.7-2.4,2.5-4.1,2.5c-0.8,0-1.4-0.2-1.9-0.6c-0.5-0.4-0.7-0.9-0.7-1.4c0-0.3,0.1-0.6,0.3-0.9   c0.2-0.3,0.5-0.4,0.9-0.4c0.4,0,0.7,0.1,0.9,0.3c0.2,0.2,0.4,0.5,0.4,0.9c0,0.2-0.1,0.4-0.2,0.6c-0.1,0.2-0.2,0.3-0.2,0.4   c0,0.1,0.1,0.2,0.2,0.2c0.1,0.1,0.3,0.1,0.5,0.1c0.9,0,1.6-0.7,2.3-2.1c0.3-0.7,0.6-1.7,0.9-3l3.7-13.4h-2.9l0.2-1.1h3   c0.6-2.4,1.2-4.2,1.9-5.4c1.1-1.8,2.4-2.7,3.9-2.7c0.7,0,1.3,0.2,1.8,0.6s0.7,0.9,0.7,1.4C637.2,48.6,637.1,49,636.8,49.3z"
   id="path2707" />
	<path
   d="M644.8,64.6c-0.4,1.4-1,2.7-1.8,3.9c-0.8,1.3-1.9,2.5-3.3,3.7c-0.9,0.8-1.7,1.3-2.3,1.6l-0.3-0.5c1.6-1.2,2.8-2.5,3.5-3.7   c1.3-2.3,2-5.2,2-8.9c0-3-0.3-5.4-0.9-7.3c-0.8-2.7-2.4-4.8-4.6-6.3l0.4-0.5c1.6,0.9,3.2,2.3,4.6,4.2c2.2,2.9,3.3,6.1,3.3,9.6   C645.5,61.7,645.3,63.2,644.8,64.6z"
   id="path2709" />
</g>
<g
   id="g2711">
	<path
   d="M778,260.8v-0.6c0.8-0.1,1.4-0.4,1.9-0.9c0.4-0.5,1.1-2,2.1-4.3l6.6-15.7h0.7l8,18.1c0.5,1.2,1,2,1.3,2.2   c0.3,0.3,0.9,0.5,1.6,0.6v0.6h-8.1v-0.6c0.9-0.1,1.5-0.2,1.8-0.3c0.3-0.1,0.4-0.4,0.4-0.9c0-0.2-0.1-0.4-0.2-0.8   c-0.1-0.4-0.2-0.8-0.4-1.2l-1.3-3.1h-8.4c-0.8,2.1-1.3,3.4-1.5,3.8c-0.2,0.5-0.2,0.8-0.2,1.1c0,0.5,0.2,0.9,0.7,1.1   c0.3,0.1,0.8,0.2,1.5,0.3v0.6H778z M791.7,252.5l-3.7-8.8l-3.7,8.8H791.7z"
   id="path2713" />
	<path
   d="M807.6,239.2h1.6l-6.9,22.2h-1.6L807.6,239.2z"
   id="path2715" />
	<path
   d="M810,260.2c1.2-0.1,1.9-0.3,2.3-0.6c0.4-0.3,0.5-1,0.5-2.2v-14.2c0-1.2-0.2-1.9-0.5-2.2s-1.1-0.5-2.3-0.6v-0.6h8.6   c2.9,0,5.4,0.5,7.4,1.4c3.6,1.7,5.4,4.8,5.4,9.2c0,1.6-0.3,3.1-1,4.5c-0.7,1.4-1.6,2.7-2.9,3.6c-0.8,0.6-1.7,1.1-2.6,1.4   c-1.6,0.6-3.6,0.9-6,0.9H810V260.2z M816.5,259.4c0.3,0.2,0.8,0.3,1.6,0.3c2.5,0,4.6-0.5,6.2-1.5c2.5-1.5,3.7-4.1,3.7-7.8   c0-3.3-1-5.8-3.1-7.4c-1.7-1.4-4.1-2.1-6.9-2.1c-0.7,0-1.2,0.1-1.5,0.2c-0.3,0.2-0.4,0.5-0.4,1v16.3   C816.1,258.9,816.2,259.2,816.5,259.4z"
   id="path2717" />
</g>
<g
   id="g2719">
	<path
   d="M778,68v-0.6c0.8-0.1,1.4-0.4,1.9-0.9c0.4-0.5,1.1-2,2.1-4.3l6.6-15.7h0.7l8,18.1c0.5,1.2,1,1.9,1.3,2.2   c0.3,0.3,0.9,0.5,1.6,0.6V68h-8.1v-0.6c0.9-0.1,1.5-0.2,1.8-0.3c0.3-0.1,0.4-0.4,0.4-0.9c0-0.2-0.1-0.4-0.2-0.8   c-0.1-0.4-0.2-0.8-0.4-1.2l-1.3-3.1h-8.4c-0.8,2.1-1.3,3.4-1.5,3.8c-0.2,0.5-0.2,0.8-0.2,1.1c0,0.5,0.2,0.9,0.7,1.1   c0.3,0.1,0.8,0.2,1.5,0.3V68H778z M791.7,59.8l-3.7-8.8l-3.7,8.8H791.7z"
   id="path2721" />
	<path
   d="M807.6,46.4h1.6l-6.9,22.2h-1.6L807.6,46.4z"
   id="path2723" />
	<path
   d="M810,67.4c1.2-0.1,1.9-0.3,2.3-0.6c0.4-0.3,0.5-1,0.5-2.2V50.3c0-1.2-0.2-1.9-0.5-2.2c-0.3-0.3-1.1-0.5-2.3-0.6v-0.6h8.6   c2.9,0,5.4,0.5,7.4,1.4c3.6,1.7,5.4,4.8,5.4,9.2c0,1.6-0.3,3.1-1,4.6c-0.7,1.4-1.6,2.7-2.9,3.6c-0.8,0.6-1.7,1.1-2.6,1.4   c-1.6,0.6-3.6,0.9-6,0.9H810V67.4z M816.5,66.6c0.3,0.2,0.8,0.3,1.6,0.3c2.5,0,4.6-0.5,6.2-1.5c2.5-1.5,3.7-4.1,3.7-7.8   c0-3.3-1-5.8-3.1-7.4c-1.7-1.4-4.1-2.1-6.9-2.1c-0.7,0-1.2,0.1-1.5,0.2c-0.3,0.2-0.4,0.5-0.4,1v16.3   C816.1,66.1,816.2,66.5,816.5,66.6z"
   id="path2725" />
</g>
<rect
   x="300.5"
   y="11.3"
   style="fill:none;stroke:#000000;stroke-width:3"
   width="170.1"
   height="102"
   id="rect2727" />
<g
   id="g2729">
	<g
   id="g2731">
		<line
   style="fill:none;stroke:#000000;stroke-width:3;"
   x1="470.6"
   y1="62.4"
   x2="515.9"
   y2="62.4"
   id="line2733" />
		<polygon
   points="526.5,62.4 511.6,68.5 515.1,62.4 511.6,56.3   "
   id="polygon2735" />
	</g>
</g>
<rect
   x="300.5"
   y="204.1"
   style="fill:none;stroke:#000000;stroke-width:3"
   width="170.1"
   height="102"
   id="rect2737" />
<g
   id="g2739">
	<g
   id="g2741">
		<line
   style="fill:none;stroke:#000000;stroke-width:3;"
   x1="470.6"
   y1="255.1"
   x2="515.9"
   y2="255.1"
   id="line2743" />
		<polygon
   points="526.5,255.1 511.6,261.2 515.1,255.1 511.6,249   "
   id="polygon2745" />
	</g>
</g>
<rect
   x="1071.5"
   y="119.1"
   style="fill:none;stroke:#000000;stroke-width:3"
   width="124.7"
   height="79.4"
   id="rect2747" />
<g
   id="g2749">
	<path
   d="M1105.2,152.6c1.1-0.1,1.8-0.3,2.2-0.6c0.4-0.4,0.5-1.1,0.5-2.3v-9.9h-2.7v-1.1h2.7c0-1.7,0.2-3,0.7-4.2   c0.9-2.2,2.4-3.3,4.7-3.3c0.9,0,1.7,0.2,2.5,0.5s1.1,0.9,1.1,1.5c0,0.3-0.1,0.7-0.4,0.9c-0.2,0.3-0.6,0.4-0.9,0.4   c-0.3,0-0.6-0.1-0.8-0.3s-0.5-0.5-0.8-1l-0.3-0.4c-0.1-0.2-0.3-0.4-0.5-0.6c-0.2-0.2-0.5-0.2-0.8-0.2c-0.8,0-1.3,0.4-1.6,1.2   c-0.2,0.4-0.2,1-0.2,1.7v3.7h3.9v1.1h-3.9v9.9c0,1.2,0.2,1.9,0.5,2.3s1.1,0.5,2.5,0.6v0.4h-8.4V152.6z"
   id="path2751" />
	<path
   d="M1115.8,152.6c1-0.1,1.6-0.3,2-0.6s0.5-0.9,0.5-1.8V135c0-0.7-0.1-1.2-0.2-1.4c-0.2-0.4-0.6-0.7-1.3-0.7   c-0.1,0-0.3,0-0.5,0s-0.4,0.1-0.6,0.1v-0.5c1.4-0.4,3.1-0.9,5.1-1.5c0.1,0,0.1,0,0.1,0.1s0,0.2,0,0.4v18.7c0,0.9,0.2,1.5,0.5,1.8   s1,0.4,1.9,0.5v0.4h-7.6V152.6z"
   id="path2753" />
	<path
   d="M1126.9,140.6c1.3-1.4,3-2.2,5.1-2.2c2.1,0,3.8,0.7,5.1,2s2,3.2,2,5.4c0,2.1-0.7,3.9-2,5.4c-1.3,1.5-3,2.3-5.1,2.3   c-2,0-3.7-0.7-5.1-2.2s-2.1-3.3-2.1-5.5C1124.9,143.8,1125.5,142,1126.9,140.6z M1129.4,140.2c-1,0.9-1.6,2.6-1.6,4.9   c0,1.9,0.4,3.6,1.3,5.2c0.8,1.6,2,2.4,3.5,2.4c1.2,0,2.1-0.5,2.7-1.6s0.9-2.5,0.9-4.2c0-1.8-0.4-3.5-1.2-5.1   c-0.8-1.6-2-2.4-3.5-2.4C1130.7,139.4,1130,139.6,1129.4,140.2z"
   id="path2755" />
	<path
   d="M1155,139c-0.6,0.1-1.1,0.2-1.4,0.3c-0.3,0.1-0.5,0.4-0.5,0.8c0,0.2,0,0.5,0.1,0.7c0.1,0.2,0.2,0.5,0.3,0.8l2.8,7.4   l2.8-6.8c0.1-0.3,0.3-0.7,0.4-1.1s0.2-0.8,0.2-1.1c0-0.4-0.1-0.6-0.4-0.8s-0.6-0.2-1-0.3v-0.4h4v0.4c-0.3,0.1-0.5,0.2-0.6,0.4   s-0.4,0.7-0.7,1.4l-5,12.3c0,0.1-0.1,0.2-0.1,0.2s-0.1,0.1-0.1,0.1c-0.1-0.1-0.2-0.1-0.2-0.2l-3.8-9.5l-3.8,9.5   c0,0.1,0,0.1-0.1,0.1s-0.1,0.1-0.1,0.1c-0.1-0.1-0.2-0.1-0.2-0.2l-4.7-11.5c-0.5-1.3-0.8-2-1-2.3s-0.5-0.4-1-0.5v-0.4h5.8v0.4   c-0.5,0-0.8,0.1-1.1,0.3c-0.3,0.1-0.4,0.4-0.4,0.8c0,0.3,0.2,1.1,0.6,2.2c0.3,0.7,0.6,1.5,1,2.4l1.8,4.4l2.8-5.9l0-0.2   c0-0.2-0.1-0.6-0.3-1.2c-0.2-0.6-0.4-1.1-0.6-1.5c-0.2-0.5-0.4-0.8-0.7-1c-0.3-0.2-0.6-0.3-1.1-0.3v-0.4h6.5V139z"
   id="path2757" />
	<path
   d="M1089.4,184.6c0.8-0.1,1.4-0.2,1.6-0.4c0.4-0.3,0.6-0.9,0.6-1.8v-8.1c0-0.8-0.1-1.3-0.3-1.5s-0.5-0.4-1-0.4   c-0.2,0-0.4,0-0.5,0c-0.1,0-0.2,0.1-0.4,0.1v-0.6l1.1-0.4c0.4-0.1,1.1-0.4,2-0.7c0.9-0.4,1.4-0.5,1.5-0.5s0.1,0,0.1,0.1   c0,0.1,0,0.2,0,0.3v2.1c1-0.9,1.9-1.6,2.7-2c0.7-0.4,1.5-0.5,2.3-0.5c1.1,0,1.9,0.4,2.5,1.1c0.3,0.4,0.6,0.9,0.8,1.6   c0.8-0.8,1.4-1.4,2-1.7c1-0.6,2-1,3-1c1.7,0,2.8,0.7,3.3,2c0.3,0.8,0.5,2,0.5,3.7v6.5c0,0.7,0.2,1.2,0.5,1.5s0.9,0.4,1.8,0.5v0.4   h-7.1v-0.4c0.9-0.1,1.5-0.3,1.8-0.6s0.4-0.9,0.4-1.7v-6.7c0-1-0.1-1.8-0.3-2.2c-0.4-0.9-1.1-1.3-2.3-1.3c-0.7,0-1.3,0.2-2,0.7   c-0.4,0.3-0.9,0.7-1.4,1.2v8c0,0.8,0.1,1.5,0.4,1.9c0.3,0.4,0.9,0.7,1.9,0.7v0.4h-7.2v-0.4c1-0.1,1.6-0.4,1.9-0.7   c0.3-0.3,0.4-1.2,0.4-2.6v-4.4c0-1.6-0.1-2.7-0.3-3.3c-0.3-1-1.1-1.5-2.2-1.5c-0.6,0-1.2,0.2-1.9,0.5c-0.6,0.3-1.1,0.8-1.6,1.4v8.5   c0,0.8,0.1,1.3,0.4,1.6c0.3,0.3,0.9,0.5,1.8,0.5v0.4h-7.2V184.6z"
   id="path2759" />
	<path
   d="M1124.9,171.9c1.1,1,1.7,2.5,1.7,4.3h-9.9c0.1,2.4,0.6,4.2,1.6,5.3s2.2,1.6,3.5,1.6c1.1,0,2-0.3,2.8-0.9   c0.7-0.6,1.4-1.4,2.1-2.4l0.5,0.2c-0.4,1.3-1.2,2.6-2.4,3.7c-1.2,1.1-2.6,1.7-4.3,1.7c-2,0-3.5-0.7-4.5-2.2   c-1.1-1.5-1.6-3.2-1.6-5.1c0-2.1,0.6-3.9,1.9-5.4c1.2-1.5,2.9-2.3,4.8-2.3C1122.5,170.4,1123.8,170.9,1124.9,171.9z M1117.5,173.1   c-0.3,0.6-0.6,1.3-0.7,2.1h6.5c-0.1-1-0.3-1.8-0.6-2.3c-0.5-0.9-1.4-1.4-2.5-1.4C1119,171.6,1118.1,172.1,1117.5,173.1z"
   id="path2761" />
	<path
   d="M1128.1,184.5c1-0.1,1.6-0.2,1.9-0.5s0.5-0.8,0.5-1.6v-7.1c0-1-0.1-1.8-0.3-2.2s-0.5-0.7-1.1-0.7c-0.1,0-0.2,0-0.4,0   c-0.2,0-0.4,0.1-0.5,0.1v-0.5c0.6-0.2,1.2-0.4,1.8-0.6s1.1-0.4,1.3-0.5c0.5-0.2,1.1-0.4,1.6-0.7c0.1,0,0.1,0,0.1,0.1s0,0.2,0,0.4   v2.6c0.7-0.9,1.3-1.7,1.9-2.2c0.6-0.5,1.3-0.8,1.9-0.8c0.5,0,1,0.2,1.3,0.5c0.3,0.3,0.5,0.7,0.5,1.2c0,0.4-0.1,0.8-0.4,1.1   c-0.3,0.3-0.6,0.4-1,0.4c-0.4,0-0.8-0.2-1.2-0.5c-0.4-0.4-0.7-0.5-0.9-0.5c-0.4,0-0.8,0.3-1.3,0.9c-0.5,0.6-0.8,1.2-0.8,1.8v7   c0,0.9,0.2,1.5,0.6,1.9c0.4,0.3,1.1,0.5,2.1,0.5v0.5h-7.7V184.5z"
   id="path2763" />
	<path
   d="M1141,178.1c-0.5-0.8-0.8-1.7-0.8-2.7c0-1.2,0.5-2.4,1.5-3.5c1-1.1,2.3-1.6,4.1-1.6c0.8,0,1.6,0.2,2.5,0.5   c0.9,0.4,1.8,0.5,2.6,0.5c0.2,0,0.5,0,1,0c0.4,0,0.8,0,1,0h0.2v1.3h-2.7c0.2,0.4,0.3,0.8,0.4,1.1c0.2,0.6,0.3,1.2,0.3,1.7   c0,1.2-0.5,2.3-1.5,3.3s-2.3,1.5-4,1.5c-0.3,0-0.7,0-1.4-0.1c-0.3,0-0.7,0.3-1.2,0.8c-0.5,0.5-0.7,0.9-0.7,1.3   c0,0.3,0.4,0.6,1.1,0.7c0.5,0.1,1,0.2,1.6,0.2c2.7,0,4.5,0.2,5.4,0.5c1.6,0.5,2.4,1.5,2.4,3.2c0,1.6-0.9,3-2.8,3.9   c-1.8,1-3.7,1.5-5.6,1.5c-1.7,0-3.1-0.3-4.1-1s-1.5-1.4-1.5-2.2c0-0.4,0.1-0.7,0.4-1.1c0.3-0.4,0.8-0.9,1.6-1.6l1-0.9l0.2-0.2   c-0.5-0.2-0.8-0.4-1.1-0.5c-0.4-0.3-0.6-0.7-0.6-1.1c0-0.4,0.2-0.8,0.5-1.3c0.4-0.5,1.1-1.2,2.3-2.3   C1142.3,179.5,1141.5,178.9,1141,178.1z M1142.6,189.8c1,0.3,2.1,0.5,3.4,0.5c1.7,0,3.1-0.3,4.2-0.9c1.1-0.6,1.6-1.3,1.6-2.2   c0-0.7-0.4-1.2-1.3-1.4c-0.5-0.1-1.6-0.2-3.1-0.2c-0.4,0-0.8,0-1.2,0s-0.8,0-1.2-0.1c-0.2,0-0.6-0.1-1.1-0.1   c-0.5-0.1-0.9-0.1-1.1-0.2c-0.1,0-0.4,0.3-0.9,1c-0.5,0.7-0.8,1.3-0.8,1.8C1141.2,188.9,1141.7,189.5,1142.6,189.8z M1147.6,179   c0.6-0.5,0.9-1.4,0.9-2.6c0-1-0.3-2.1-0.8-3.3c-0.5-1.2-1.3-1.9-2.5-1.9c-1,0-1.7,0.5-2.1,1.5c-0.2,0.5-0.3,1.1-0.3,1.9   c0,1.3,0.3,2.4,0.9,3.4c0.6,1,1.4,1.5,2.4,1.5C1146.7,179.5,1147.2,179.4,1147.6,179z"
   id="path2765" />
	<path
   d="M1165.2,171.9c1.1,1,1.7,2.5,1.7,4.3h-9.9c0.1,2.4,0.6,4.2,1.6,5.3s2.2,1.6,3.5,1.6c1.1,0,2-0.3,2.8-0.9   c0.7-0.6,1.4-1.4,2.1-2.4l0.5,0.2c-0.4,1.3-1.2,2.6-2.4,3.7c-1.2,1.1-2.6,1.7-4.3,1.7c-2,0-3.5-0.7-4.5-2.2   c-1.1-1.5-1.6-3.2-1.6-5.1c0-2.1,0.6-3.9,1.9-5.4c1.2-1.5,2.9-2.3,4.8-2.3C1162.8,170.4,1164.1,170.9,1165.2,171.9z M1157.8,173.1   c-0.3,0.6-0.6,1.3-0.7,2.1h6.5c-0.1-1-0.3-1.8-0.6-2.3c-0.5-0.9-1.4-1.4-2.5-1.4C1159.3,171.6,1158.4,172.1,1157.8,173.1z"
   id="path2767" />
	<path
   d="M1168.4,184.5c1-0.1,1.6-0.2,1.9-0.5s0.5-0.8,0.5-1.6v-7.1c0-1-0.1-1.8-0.3-2.2s-0.5-0.7-1.1-0.7c-0.1,0-0.2,0-0.4,0   c-0.2,0-0.4,0.1-0.5,0.1v-0.5c0.6-0.2,1.2-0.4,1.8-0.6s1.1-0.4,1.3-0.5c0.5-0.2,1.1-0.4,1.6-0.7c0.1,0,0.1,0,0.1,0.1s0,0.2,0,0.4   v2.6c0.7-0.9,1.3-1.7,1.9-2.2c0.6-0.5,1.3-0.8,1.9-0.8c0.5,0,1,0.2,1.3,0.5c0.3,0.3,0.5,0.7,0.5,1.2c0,0.4-0.1,0.8-0.4,1.1   c-0.3,0.3-0.6,0.4-1,0.4c-0.4,0-0.8-0.2-1.2-0.5c-0.4-0.4-0.7-0.5-0.9-0.5c-0.4,0-0.8,0.3-1.3,0.9c-0.5,0.6-0.8,1.2-0.8,1.8v7   c0,0.9,0.2,1.5,0.6,1.9c0.4,0.3,1.1,0.5,2.1,0.5v0.5h-7.7V184.5z"
   id="path2769" />
</g>
<rect
   style="fill:none;"
   width="1275.6"
   height="317.5"
   id="rect2771" />
<g
   id="g2773">
	<g
   id="g2775">
		<polyline
   style="fill:none;stroke:#000000;stroke-width:3;"
   points="153.1,62.4 102,62.4 102,255.1 153.1,255.1   "
   id="polyline2777" />
		<path
   d="M151.5,255.1l-3.3-5.4l0.2-0.1l8.8,3.5c3.1,0.7,6.1,1.4,9.2,2c-3.1,0.7-6.1,1.4-9.2,2l-8.8,3.5l-0.2-0.1L151.5,255.1z"
   id="path2779" />
		<path
   d="M151.5,62.4l-3.3-5.4l0.2-0.1l8.8,3.5c3.1,0.7,6.1,1.4,9.2,2c-3.1,0.7-6.1,1.4-9.2,2l-8.8,3.5l-0.2-0.1L151.5,62.4z"
   id="path2781" />
	</g>
</g>
<polyline
   id="polyline2785"
   points="345.8,85 345.8,39.7 425.2,39.7 425.2,85  "
   style="fill:none;stroke:#ff0000;stroke-width:2;stroke-miterlimit:4;stroke-dasharray:none;stroke-opacity:1" /><g
   id="g2787">
		<g
   id="g2789">
			<line
   id="line2791"
   y2="85"
   x2="442.20001"
   y1="85"
   x1="328.79999"
   style="fill:none;stroke:#000000;stroke-width:2" />
			<path
   id="path2793"
   d="M 441,85 L 438.4,80.7 L 438.5,80.6 L 445.5,83.4 C 448,83.9 450.4,84.5 452.9,85 C 450.4,85.5 448,86.1 445.5,86.6 L 438.5,89.4 L 438.4,89.3 L 441,85 z " />
		</g>
	</g><g
   id="g2795">
		<g
   id="g2797">
			<line
   id="line2799"
   y2="28.299999"
   x2="385.5"
   y1="96.400002"
   x1="385.5"
   style="fill:none;stroke:#000000;stroke-width:2" />
			<path
   id="path2801"
   d="M 385.5,29.6 L 381.2,32.2 L 381.1,32.1 L 383.9,25 C 384.4,22.5 385,20.1 385.5,17.6 C 386,20.1 386.6,22.5 387.1,25 L 389.9,32.1 L 389.8,32.2 L 385.5,29.6 z " />
		</g>
	</g><g
   id="g2803">
		<path
   id="path2805"
   d="M 463.5,76.6 C 463.3,76.8 463.1,76.9 462.8,76.9 C 462.5,76.9 462.3,76.8 462.1,76.6 C 461.9,76.4 461.8,76.2 461.8,76 C 461.8,75.8 461.9,75.6 462,75.2 C 462,75.1 461.9,75 461.8,74.9 C 461.7,74.8 461.6,74.8 461.5,74.8 C 460.9,74.8 460.4,75.4 460,76.7 C 459.8,77.4 459.5,78.7 459.2,80.4 L 461.8,80.4 L 461.6,81.2 L 458.9,81.2 L 456.7,88.9 C 456.2,90.9 455.6,92.6 454.8,93.8 C 454,95 453,95.7 451.7,95.7 C 451.1,95.7 450.7,95.5 450.3,95.2 C 449.9,94.9 449.8,94.6 449.8,94.2 C 449.8,94 449.9,93.7 450,93.5 C 450.1,93.3 450.4,93.2 450.7,93.2 C 451,93.2 451.2,93.3 451.4,93.5 C 451.6,93.7 451.7,93.9 451.7,94.2 C 451.7,94.3 451.7,94.5 451.6,94.6 C 451.5,94.7 451.5,94.8 451.5,94.9 C 451.5,95 451.5,95 451.6,95.1 C 451.7,95.2 451.8,95.2 451.9,95.2 C 452.6,95.2 453.1,94.7 453.6,93.6 C 453.8,93.1 454.1,92.3 454.3,91.3 L 457.1,81.2 L 455,81.2 L 455.2,80.4 L 457.5,80.4 C 457.9,78.6 458.4,77.2 458.9,76.4 C 459.7,75.1 460.7,74.4 461.8,74.4 C 462.3,74.4 462.8,74.6 463.1,74.9 C 463.5,75.2 463.6,75.6 463.6,75.9 C 463.7,76.2 463.6,76.4 463.5,76.6 z " />
	</g>
<polyline
   id="polyline2809"
   points="345.8,277.8 345.8,232.4 425.2,232.4 425.2,277.8  "
   style="fill:none;stroke:#ff0000;stroke-width:2;stroke-miterlimit:4;stroke-dasharray:none;stroke-opacity:1" /><g
   id="g2811">
		<g
   id="g2813">
			<line
   id="line2815"
   y2="277.79999"
   x2="442.20001"
   y1="277.79999"
   x1="328.79999"
   style="fill:none;stroke:#000000;stroke-width:2" />
			<path
   id="path2817"
   d="M 441,277.8 L 438.4,273.5 L 438.5,273.4 L 445.5,276.2 C 448,276.7 450.4,277.3 452.9,277.8 C 450.4,278.3 448,278.9 445.5,279.4 L 438.5,282.2 L 438.4,282.1 L 441,277.8 z " />
		</g>
	</g><g
   id="g2819">
		<g
   id="g2821">
			<line
   id="line2823"
   y2="221.10001"
   x2="385.5"
   y1="289.10001"
   x1="385.5"
   style="fill:none;stroke:#000000;stroke-width:2" />
			<path
   id="path2825"
   d="M 385.5,222.3 L 381.2,224.9 L 381.1,224.8 L 383.9,217.7 C 384.4,215.2 385,212.8 385.5,210.3 C 386,212.8 386.6,215.2 387.1,217.7 L 389.9,224.8 L 389.8,224.9 L 385.5,222.3 z " />
		</g>
	</g><g
   id="g2827">
		<path
   id="path2829"
   d="M 463.5,269.4 C 463.3,269.6 463.1,269.7 462.8,269.7 C 462.5,269.7 462.3,269.6 462.1,269.4 C 461.9,269.2 461.8,269 461.8,268.8 C 461.8,268.6 461.9,268.4 462,268 C 462,267.9 461.9,267.8 461.8,267.7 C 461.7,267.6 461.6,267.6 461.5,267.6 C 460.9,267.6 460.4,268.2 460,269.5 C 459.8,270.2 459.5,271.5 459.2,273.2 L 461.8,273.2 L 461.6,274 L 458.9,274 L 456.7,281.7 C 456.2,283.7 455.6,285.4 454.8,286.6 C 454,287.8 453,288.5 451.7,288.5 C 451.1,288.5 450.7,288.3 450.3,288 C 449.9,287.7 449.8,287.4 449.8,287 C 449.8,286.8 449.9,286.5 450,286.3 C 450.1,286.1 450.4,286 450.7,286 C 451,286 451.2,286.1 451.4,286.3 C 451.6,286.5 451.7,286.7 451.7,287 C 451.7,287.1 451.7,287.3 451.6,287.4 C 451.5,287.5 451.5,287.6 451.5,287.7 C 451.5,287.8 451.5,287.8 451.6,287.9 C 451.7,288 451.8,288 451.9,288 C 452.6,288 453.1,287.5 453.6,286.4 C 453.8,285.9 454.1,285.1 454.3,284.1 L 457.1,274 L 455,274 L 455.2,273.2 L 457.5,273.2 C 457.9,271.4 458.4,270 458.9,269.2 C 459.7,267.9 460.7,267.2 461.8,267.2 C 462.3,267.2 462.8,267.4 463.1,267.7 C 463.5,268 463.6,268.4 463.6,268.7 C 463.7,268.9 463.6,269.2 463.5,269.4 z " />
	</g>
<rect
   x="912.8"
   y="11.3"
   style="fill:none;stroke:#000000;stroke-width:3"
   width="136.1"
   height="102"
   id="rect2831" />
<rect
   x="912.8"
   y="204.1"
   style="fill:none;stroke:#000000;stroke-width:3"
   width="136.1"
   height="102"
   id="rect2833" />
<g
   id="g2835">
	<g
   id="g2837">
		<line
   style="fill:none;stroke:#000000;stroke-width:2;"
   x1="941.1"
   y1="85"
   x2="1020.5"
   y2="85"
   id="line2839" />
		<path
   d="M1019.2,85l-2.6-4.3l0.1-0.1l7,2.8c2.5,0.5,4.9,1.1,7.4,1.6c-2.5,0.5-4.9,1.1-7.4,1.6l-7,2.8l-0.1-0.1L1019.2,85z"
   id="path2841" />
	</g>
</g>
<g
   id="g2843">
	<g
   id="g2845">
		<line
   style="fill:none;stroke:#000000;stroke-width:2;"
   x1="952.4"
   y1="96.4"
   x2="952.4"
   y2="28.3"
   id="line2847" />
		<path
   d="M952.4,29.6l-4.3,2.6l-0.1-0.1l2.8-7.1c0.5-2.5,1.1-4.9,1.6-7.4c0.5,2.5,1.1,4.9,1.6,7.4l2.8,7.1l-0.1,0.1L952.4,29.6z"
   id="path2849" />
	</g>
</g>
<g
   id="g2851">
	<g
   id="g2853">
		<line
   style="fill:none;stroke:#000000;stroke-width:2;"
   x1="941.1"
   y1="277.8"
   x2="1020.5"
   y2="277.8"
   id="line2855" />
		<path
   d="M1019.2,277.8l-2.6-4.3l0.1-0.1l7,2.8c2.5,0.5,4.9,1.1,7.4,1.6c-2.5,0.5-4.9,1.1-7.4,1.6l-7,2.8l-0.1-0.1L1019.2,277.8z"
   id="path2857" />
	</g>
</g>
<g
   id="g2859">
	<g
   id="g2861">
		<line
   style="fill:none;stroke:#000000;stroke-width:2;"
   x1="952.4"
   y1="289.1"
   x2="952.4"
   y2="221.1"
   id="line2863" />
		<path
   d="M952.4,222.3l-4.3,2.6l-0.1-0.1l2.8-7.1c0.5-2.5,1.1-4.9,1.6-7.4c0.5,2.5,1.1,4.9,1.6,7.4l2.8,7.1l-0.1,0.1L952.4,222.3z"
   id="path2865" />
	</g>
</g>


<g
   id="g2871">
	<g
   id="g2873">
		<polyline
   style="fill:none;stroke:#000000;stroke-width:3;"
   points="1048.8,62.4 1133.9,62.4 1133.9,107.7   "
   id="polyline2875" />
		<path
   d="M1133.9,106.2l5.4-3.3l0.1,0.2l-3.5,8.8c-0.7,3.1-1.4,6.1-2,9.2c-0.7-3.1-1.4-6.1-2-9.2l-3.5-8.8l0.1-0.2L1133.9,106.2z"
   id="path2877" />
	</g>
</g>
<g
   id="g2879">
	<g
   id="g2881">
		<polyline
   style="fill:none;stroke:#000000;stroke-width:3;"
   points="1048.8,255.1 1133.9,255.1 1133.9,209.8   "
   id="polyline2883" />
		<path
   d="M1133.9,211.3l-5.4,3.3l-0.1-0.2l3.5-8.8c0.7-3.1,1.4-6.1,2-9.2c0.7,3.1,1.4,6.1,2,9.2l3.5,8.8l-0.1,0.2L1133.9,211.3z"
   id="path2885" />
	</g>
</g>
<path
   style="fill:none;fill-rule:evenodd;stroke:#ff0000;stroke-width:2;stroke-linecap:butt;stroke-linejoin:miter;stroke-miterlimit:4;stroke-dasharray:none;stroke-opacity:1"
   d="M 953.938,84.818717 L 971.62399,84.818717 L 971.62399,68.238103 L 988.75729,68.238103 L 988.75729,51.104802 L 1005.8905,51.104802 L 1005.8905,33.971501 L 1023.5765,33.971501"
   id="path3932" /><path
   style="fill:none;fill-rule:evenodd;stroke:#ff0000;stroke-width:2;stroke-linecap:butt;stroke-linejoin:miter;stroke-miterlimit:4;stroke-dasharray:none;stroke-opacity:1;overflow:visible"
   d="M 953.38536,277.70653 L 971.07135,277.70653 L 971.07135,261.12592 L 988.20461,261.12592 L 988.20461,243.99262 L 1005.3378,243.99262 L 1005.3378,226.85932 L 1023.0238,226.85932"
   id="path4903" /></svg>